<svg xmlns="http://www.w3.org/2000/svg" xmlns:xlink="http://www.w3.org/1999/xlink" width="112.885" height="63.087" viewBox="0 0 112.885 63.087">
  <defs>
    <linearGradient id="linear-gradient" y1="0.5" x2="1" y2="0.5" gradientUnits="objectBoundingBox">
      <stop offset="0" stop-color="#ff8f00"/>
      <stop offset="1" stop-color="#ffe983"/>
    </linearGradient>
    <linearGradient id="linear-gradient-2" x1="0" y1="0.5" x2="1" y2="0.5" xlink:href="#linear-gradient"/>
  </defs>
  <g id="Group_221" data-name="Group 221" transform="translate(-86.068 -112.243)">
    <g id="Group_207" data-name="Group 207">
      <path id="Path_401" data-name="Path 401" d="M95.544,112.243c11.72,3.735,23.429,7.508,35.163,11.205-.475,1.192-1.079,2.33-1.6,3.506-1.874,3.983-3.7,7.99-5.59,11.965-.019.04-.059.121-.081.162-.021-4.078,0-8.152-.011-12.227-3.044,0-6.089-.006-9.131.005-.841.833-1.677,1.669-2.518,2.5-.006-.836-.006-1.675,0-2.511q-4.592,0-9.18,0c-2.2,2.174-4.368,4.377-6.574,6.545-.011,6.4,0,12.8-.006,19.2-3.328-1.138-6.6-2.459-9.948-3.53C89.28,136.8,92.408,124.524,95.544,112.243Z" fill="#5eff00"/>
      <path id="Path_402" data-name="Path 402" d="M106.41,156.335q.661-.714,1.337-1.414c-.005.634-.008,1.271-.008,1.907C107.151,156.606,107.016,156.567,106.41,156.335Z" fill="#5eff00"/>
      <path id="Path_403" data-name="Path 403" d="M109.365,157.464q2.775-.02,5.55-.008-.4.825-.815,1.643C112.259,158.478,110.958,158.026,109.365,157.464Z" fill="#5eff00"/>
    </g>
    <g id="Group_208" data-name="Group 208">
      <path id="Path_404" data-name="Path 404" d="M129.11,126.954c6.063-4.466,12.179-8.894,18.228-13.355,1.593,4.347,3.6,9.009,5.5,13.232,0,0-2.708-.018-3.865.023-2.318,2.412-3.793,3.923-6.615,6.9-.878-2.333-1.81-4.6-2.721-6.9-2.249,0-4.55-.031-6.745-.008-2.929,4.213-4.579,6.64-8.428,12.115-.135-.008-.808-.034-.943-.042C125.413,134.944,127.236,130.937,129.11,126.954Z" fill="#008cff"/>
      <path id="Path_405" data-name="Path 405" d="M158.224,140.006c.308.774.64,1.537.969,2.3-.329,0-.658,0-.985,0C158.208,141.543,158.219,140.774,158.224,140.006Z" fill="#008cff"/>
    </g>
    <g id="Group_209" data-name="Group 209">
      <path id="Path_406" data-name="Path 406" d="M166.393,127.11c10.857-2.125,21.7-4.374,32.56-6.453-1.842,13.988-3.476,28-5.223,42-12.8-1.257-16.024-1.59-24.123-2.365-.526-1.986-.6-2.227-1.113-4.1.552-.558,1.1-1.114,1.669-1.661q1.116,0,2.235,0c.389.955.669,1.947,1.023,2.915,3.308.011,6.615,0,9.921.006,2.214-2.177,4.374-4.41,6.612-6.562q-4.789-12.018-9.565-24.041c-2.26.008-4.517,0-6.774.011-3.916,5.854-5.661,8.519-8.849,13.445-1.3-4.9-1.88-7.345-3.076-12.283C163.273,127.795,164.821,127.39,166.393,127.11Z" fill="red"/>
    </g>
    <g id="Group_211" data-name="Group 211">
      <path id="Path_407" data-name="Path 407" d="M157.793,122.957c2.875,1.37,5.766,2.71,8.6,4.153-1.572.28-3.12.685-4.7.914,1.291,5.248,1.926,7.786,3.068,12.251-.5.809-.6.984-1.283,2.026-1.429.016-2.856.005-4.282.008-.329-.766-.661-1.529-.969-2.3-.037-4.382-.005-8.767-.016-13.152q-1.614,0-3.228,0C155.932,125.565,156.833,124.241,157.793,122.957Z" fill="#ff6d00"/>
      <g id="Group_210" data-name="Group 210">
        <path id="Path_408" data-name="Path 408" d="M167.122,157.459c.642-.6.729-.686,1.372-1.262.452,1.65.618,2.214,1.113,4.1.5.041.564.049,1.187.12-1.033,2.445-1.824,4.355-3.263,7.7-13.544-7.1-14.329-7.52-20.33-10.657C153.52,157.443,160.8,157.451,167.122,157.459Z" fill="#ff6d00"/>
      </g>
      <path id="Path_409" data-name="Path 409" d="M165.6,162.688c.421-.076.2.569.375.777-.156-.006-.472-.011-.631-.014A2.119,2.119,0,0,0,165.6,162.688Z" fill="#ff6d00"/>
    </g>
    <g id="Group_213" data-name="Group 213">
      <g id="Group_212" data-name="Group 212">
        <path id="Path_410" data-name="Path 410" d="M158.208,126.854c.011,4.385-.021,8.77.016,13.152-.005.768-.016,1.537-.016,2.305.327,0,.656,0,.985,0,1.426,0,2.853.008,4.282-.008,4.035-6.23,4.844-7.586,10.14-15.439,2.257-.016,4.514,0,6.774-.011q4.756,12.03,9.565,24.041c-2.238,2.152-4.4,4.385-6.612,6.562-3.306,0-6.613.005-9.921-.006-.354-.968-.634-1.96-1.023-2.915q-1.12.007-2.235,0c-1.7,1.666-1.915,1.864-3.041,2.923-6.319-.008-13.188-.008-19.507,0-4.991-.016-9.983.008-14.974-.014-.262-.976-.607-1.925-.917-2.885-.764-.024-1.529-.027-2.293-.022-1.087,1.235-1.539,1.711-2.729,3.02-3.105.059-18.561-.1-18.96-.1,0-.157,0-.47,0-.626,0-.636,0-1.273.008-1.907q-.765.793-1.516,1.608c-.321.3-.65.6-.957.911q-4.632.033-9.266,0c.022-1.615.008-3.23.008-4.843.008-6.4,0-12.8.006-19.2,2.206-2.168,4.376-4.371,6.574-6.545q4.591.008,9.18,0c0,.836,0,1.675,0,2.511.841-.834,1.677-1.67,2.518-2.5,3.042-.011,6.087,0,9.131-.005.009,4.075-.01,8.149.011,12.227.008.458.03.917.06,1.375,3.83-5.559,5.8-8.446,9.392-13.61,3.067-.023,4.5,0,6.745.008.911,2.3,1.676,4.137,2.721,6.9,3.1-3.225,3.619-3.76,6.615-6.9C150.129,126.813,157.132,126.854,158.208,126.854Zm-54.576.984c-.022,7.314.054,14.63-.038,21.941,2.986.03,4.223.03,7.219.07v-7.937c.356,0,3.324.005,4.634.013,0,2.641-.036,5.324-.079,7.932,2.633-.016,4.585.015,7-.014l.184.017c-.022-7.338-.008-14.679-.006-22.017-.725,0-1.448,0-2.173,0-.623,0-1.246,0-1.866,0-1.052-.006-2.1,0-3.153.011.059,2.483.09,4.864.07,7.456-1.181.054-2.365.03-3.546.038-.359-.006-.715-.008-1.073-.014.035-2.467-.054-5.014.035-7.482C108.444,127.818,106.1,127.838,103.632,127.838Zm29.893.03c-2.716,7.373-6.467,14.88-8.549,22.161,2.131,0,6.664.015,7.33.01.4-.936.782-2.1,1.16-3.046q2.734,0,5.471,0c.375.941.691,1.9.982,2.872,3.642,0,4.255.01,7.794.008q-4.317-11.026-8.765-22.008C137.141,127.87,135.332,127.862,133.525,127.868Zm22.089-.025c-.723-.008-1.448,0-2.174,0-1.14-.01-2.284,0-3.424,0,.008,1.6,0,3.2,0,4.8q0,1.347,0,2.7c-.008,4.809.017,9.668-.021,14.477l7.222.034c2.272,0,3.177,0,5.922.006-.009-2.168,0-4.339,0-6.507-1.969-.008-3.94,0-5.909-.006.008-2.664,0-5.331,0-8q0-1.367,0-2.729c.011-1.593,0-3.187.008-4.781C156.7,127.838,156.156,127.843,155.614,127.843Zm18.664.019q-4.458,10.976-8.84,21.976c3.206,0,4.317.018,7.729-.008.324-.949.666-1.893,1.044-2.821,1.825-.027,3.654-.013,5.482-.008.367.944.6,1.934,1.017,2.861,3.266.034,3.9.046,7.718.1-2.751-7.419-5.849-14.719-8.708-22.1C177.9,127.865,176.093,127.868,174.278,127.862Zm-26.663,29.6"/>
      </g>
    </g>
    <g id="Group_216" data-name="Group 216">
      <g id="Group_214" data-name="Group 214">
        <path id="Path_411" data-name="Path 411" d="M133.525,127.868c1.807-.006,3.616,0,5.423-.006q4.458,10.976,8.765,22.008c-.726.019-6.384-.054-7.794-.008-.291-.968-.607-1.931-.982-2.872q-2.734.012-5.471,0c-.378.947-.758,2.11-1.16,3.046-.666.005-5.746-.012-7.33-.01C127.058,142.748,130.809,135.241,133.525,127.868Zm2.772,10.7c-.3.982-.386,1.244-.722,2.322q.72,0,1.442-.016C136.76,140.077,136.553,139.506,136.3,138.571Zm-2.831,8.422c-.378.947-.758,2.11-1.16,3.046" fill="#fff"/>
      </g>
      <g id="Group_215" data-name="Group 215">
        <path id="Path_412" data-name="Path 412" d="M174.278,127.862c1.815.006,3.627,0,5.442,0,2.859,7.381,5.957,14.681,8.708,22.1-3.786-.057-4.131-.069-7.718-.1-.413-.927-.65-1.917-1.017-2.861-1.828-.005-3.657-.019-5.482.008-.378.928-.72,1.872-1.044,2.821-3.706.011-4.784.018-7.729.008Q169.807,138.831,174.278,127.862Zm1.979,13.015q.693.012,1.389.016c-.326-1.1-.428-1.383-.744-2.381C176.671,139.355,176.517,139.914,176.257,140.877Z" fill="#fff"/>
      </g>
      <path id="Path_413" data-name="Path 413" d="M150.018,132.644c1.141,0,2.279-.006,3.42,0,.725,0,1.451-.006,2.176,0,.539,0,1.079-.011,1.618-.022q0,1.363,0,2.729c-.372-.005-.744-.008-1.114-.008h-2.707c-1.133.006-2.263,0-3.393,0Q150.015,133.993,150.018,132.644Z" fill="#fff"/>
      <path id="Path_414" data-name="Path 414" d="M157.229,143.344c1.969.008,3.94,0,5.909.006,0,2.168-.006,4.339,0,6.507-3.007,0-3.428-.009-5.922-.006C157.227,147.683,157.21,145.515,157.229,143.344Z" fill="#fff"/>
    </g>
    <path id="Path_415" data-name="Path 415" d="M122.549,127.843c-.725,0-6.14,0-7.192.009.059,2.483.079,4.745.07,7.456-1.181.054-2.365.03-3.546.038-.359-.006-.715-.008-1.073-.014.035-2.467-.054-5.014.035-7.482-3.379.024-3.9,0-7.211-.012-.022,7.314.054,14.63-.038,21.941,3.43.046,4.223.046,7.219.07v-7.937c1.969,0,2.35-.035,4.587,0-.024,4.224-.036,4.711-.032,7.944,3.284-.048,4.394,0,7-.014l.184.017C122.533,142.522,122.547,135.181,122.549,127.843Z" fill="url(#linear-gradient)"/>
    <g id="Group_217" data-name="Group 217">
      <path id="Path_416" data-name="Path 416" d="M150.018,132.644c1.141,0,2.279-.006,3.42,0,.725,0,1.451-.006,2.176,0,.539,0,1.079-.011,1.618-.022.011-1.593,0-3.187.008-4.781-.542,0-1.084.005-1.626.005-.723-.008-1.448,0-2.174,0-1.14-.01-2.284,0-3.424,0C150.024,129.443,150.018,131.042,150.018,132.644Z" fill="url(#linear-gradient-2)"/>
      <path id="Path_417" data-name="Path 417" d="M156.118,135.34h-2.707c-1.133.006-2.263,0-3.393,0-.008,4.809.017,9.668-.021,14.477,0,0,4.109.008,7.222.034.008-2.168-.009-4.336.01-6.507.008-2.664,0-5.331,0-8C156.86,135.343,156.488,135.34,156.118,135.34Z" fill="url(#linear-gradient)"/>
    </g>
    <g id="Group_218" data-name="Group 218">
      <path id="Path_418" data-name="Path 418" d="M136.3,138.571c.288,1.006.415,1.387.72,2.306q-.723.012-1.442.016C135.9,139.831,136.006,139.53,136.3,138.571Z" fill="#010101"/>
      <path id="Path_419" data-name="Path 419" d="M176.257,140.877c.254-.945.426-1.558.645-2.365.311.986.441,1.355.744,2.381Q176.95,140.888,176.257,140.877Z" fill="#010101"/>
    </g>
    <g id="Group_219" data-name="Group 219">
      <path id="Path_420" data-name="Path 420" d="M124.463,138.961c-.4-.018-.513-.02-.943-.042l-.081.162c0,.2.036.758.063,1.365C123.636,140.516,124.328,139.209,124.463,138.961Z" fill="#d300ff"/>
      <path id="Path_421" data-name="Path 421" d="M147.213,157.459c-4.991-.016-9.581.008-14.572-.014-.262-.976-.607-1.925-.917-2.885-.764-.024-1.529-.027-2.293-.022a26.179,26.179,0,0,1-2.784,3.028c-5.7,0-6.072,0-11.783-.044-.264.55-.486,1.032-.764,1.577-1.738-.629-2.659-.973-4.72-1.63-.191,0-.263,0-.443,0-.556.764-1.12,1.513-1.657,2.29,2.317,1.34,21.008,11.973,27.424,15.576,2.642-3.522,12.591-16.226,13.494-17.361C147.779,157.754,147.673,157.7,147.213,157.459Z" fill="#d300ff"/>
    </g>
    <g id="Group_220" data-name="Group 220">
      <path id="Path_422" data-name="Path 422" d="M136.2,163.993c-.123-.009-.262-.007-.4-.006h-.2v.4h.036l.3,0a2.066,2.066,0,0,0,.3-.017c.074-.024.1-.123.1-.2A.182.182,0,0,0,136.2,163.993Z" fill="none"/>
      <path id="Path_423" data-name="Path 423" d="M136.116,162.97c.064-.02.1-.107.092-.182,0-.023-.013-.139-.117-.158s-.241-.005-.37,0h-.115v.354c.091,0,.183.005.271,0A1.447,1.447,0,0,0,136.116,162.97Z" fill="none"/>
      <path id="Path_424" data-name="Path 424" d="M165.9,163.434c-.045.135-.09.271-.131.409h.456c-.042-.14-.088-.279-.133-.417-.032-.1-.064-.195-.1-.293C165.96,163.234,165.927,163.334,165.9,163.434Z" fill="none"/>
      <path id="Path_425" data-name="Path 425" d="M138.833,162.626c-.055,0-.11.006-.165.007v.654a.839.839,0,0,0,.684-.165.327.327,0,0,0,.008-.355C139.272,162.61,139.1,162.611,138.833,162.626Z" fill="none"/>
      <path id="Path_426" data-name="Path 426" d="M123.956,164.295a1.333,1.333,0,0,1-.067-1.479,1.149,1.149,0,0,1,1-.483,1.043,1.043,0,0,1,.815.407c.17-.09.338-.19.5-.288l.029-.018a1.648,1.648,0,0,0-1.372-.664,2.145,2.145,0,0,0-.224.012,1.633,1.633,0,0,0-1.431,1.075l0,.007a1.756,1.756,0,0,0,3.026,1.717c-.172-.1-.343-.2-.514-.3a1.093,1.093,0,0,1-.792.4A1.137,1.137,0,0,1,123.956,164.295Z" fill="#fff"/>
      <path id="Path_427" data-name="Path 427" d="M116.355,163.351l-.106.189-.111-.186c-.156-.262-.314-.521-.473-.78s-.3-.493-.451-.741c-.2,0-.4,0-.6,0h-.05v3.341h.6v-.633c0-.43,0-.861,0-1.292l.005-.427.226.362c.092.148.18.313.268.479a3.576,3.576,0,0,0,.6.9c.1-.167.2-.331.3-.5.178-.285.362-.58.516-.881l.237-.462v1.341c0,.369,0,.739,0,1.108h.605v-.9q0-1.22,0-2.44c-.217,0-.435,0-.654,0-.1.163-.2.325-.3.487C116.764,162.654,116.549,163,116.355,163.351Z" fill="#fff"/>
      <path id="Path_428" data-name="Path 428" d="M119.927,163.394l-.1-.265c-.113-.287-.259-.571-.4-.846-.076-.149-.152-.3-.223-.449-.195-.006-.388-.005-.58,0h-.1q.222.411.448.822c.219.4.437.8.652,1.2l.014.053c.014.29.012.586.01.871,0,.132,0,.263,0,.394h.612a4.276,4.276,0,0,0-.01-.449,1.873,1.873,0,0,1,.194-1.185c.234-.416.465-.843.7-1.27l.237-.436c-.229,0-.457-.007-.681,0q-.327.648-.641,1.3Z" fill="#fff"/>
      <path id="Path_429" data-name="Path 429" d="M128.9,164.627h-1.425V164.5c0-.207,0-.415,0-.622v-.126h1.278v-.178c0-.12,0-.241,0-.362h-1.277v-.3c0-.131,0-.261,0-.391l0-.129h.129c.428,0,.858,0,1.287,0v-.561c-.659,0-1.318,0-1.977,0h-.037q0,1.671,0,3.341.936,0,1.87,0h.16v-.237C128.9,164.833,128.9,164.73,128.9,164.627Z" fill="#fff"/>
      <path id="Path_430" data-name="Path 430" d="M130.306,164.626h-.124V164.5q0-1.334,0-2.67h-.2c-.136,0-.271,0-.407,0q0,1.671,0,3.341.942,0,1.882,0c0-.17,0-.34,0-.51v-.035c-.223,0-.447,0-.669,0C130.627,164.627,130.467,164.628,130.306,164.626Z" fill="#fff"/>
      <path id="Path_431" data-name="Path 431" d="M132.644,164.625v-.872h1.263c0-.179,0-.359,0-.538-.38,0-.759,0-1.137,0h-.126V162.9c0-.127,0-.255,0-.382l0-.127h.128c.242,0,.483,0,.726,0,.182,0,.363,0,.545,0v-.564c-.25,0-.5,0-.75,0-.42,0-.842,0-1.263,0q0,1.668,0,3.335c.505.007,1.012.006,1.518,0h.523c0-.181,0-.362,0-.544-.252,0-.5,0-.756,0h-.67Z" fill="#fff"/>
      <path id="Path_432" data-name="Path 432" d="M136.676,163.459l.128-.112a.819.819,0,0,0,.127-1.067.89.89,0,0,0-.622-.418,8.255,8.255,0,0,0-1.067-.031c-.162,0-.323.006-.487,0q0,1.049,0,2.1v1.238c.058,0,.116,0,.174,0,.147,0,.294,0,.438.008a5.213,5.213,0,0,0,1.205-.059.861.861,0,0,0,.6-.733.814.814,0,0,0-.353-.834Zm-1.321-.351c0-.107,0-.214,0-.32l0-.413.126,0c.078,0,.156,0,.235,0,.132,0,.267,0,.4.005a.406.406,0,0,1,.337.393.418.418,0,0,1-.286.438,2.151,2.151,0,0,1-.439.021c-.083,0-.165,0-.247,0l-.133.007Zm.939,1.512a3.047,3.047,0,0,1-.5.022c-.1,0-.2,0-.3,0l-.132.007v-.264c0-.176,0-.35,0-.525v-.132l.131.005c.106,0,.211,0,.317,0,.145,0,.29,0,.434.009a.429.429,0,0,1,.351.417A.435.435,0,0,1,136.294,164.62Z" fill="#fff"/>
      <path id="Path_433" data-name="Path 433" d="M139.535,163.941l.133-.059a1.007,1.007,0,0,0,.566-1.022,1.043,1.043,0,0,0-.719-.963,4.349,4.349,0,0,0-1.16-.066c-.177,0-.357.01-.539.006q0,.982,0,1.965v1.372h.6v-1.146l.108-.015c.507-.064.705.38.867.74a2.185,2.185,0,0,0,.222.417c.22.006.438.008.65,0-.082-.138-.161-.278-.242-.417-.133-.233-.266-.467-.41-.693Zm-.712-.394a1.39,1.39,0,0,1-.307-.033l-.1-.022v-1.13l.139.016a1.642,1.642,0,0,0,.262,0c.266-.016.591-.033.765.281a.562.562,0,0,1-.04.624A.944.944,0,0,1,138.823,163.547Z" fill="#fff"/>
      <path id="Path_434" data-name="Path 434" d="M141.568,161.832c-.2,0-.4,0-.6,0q0,1.673,0,3.343c.2,0,.4,0,.6,0Q141.567,163.5,141.568,161.832Z" fill="#fff"/>
      <path id="Path_435" data-name="Path 435" d="M143.064,162.4v.125c0,.54,0,1.081,0,1.621q0,.516,0,1.033h.6v-.856c0-.6,0-1.2,0-1.8v-.127h.127c.22,0,.44,0,.661,0h.14c0-.187,0-.374,0-.561-.579,0-1.159,0-1.738,0h-.714v.563h.93Z" fill="#fff"/>
      <path id="Path_436" data-name="Path 436" d="M145.857,163.566a1.749,1.749,0,0,1,.182,1.141,4.366,4.366,0,0,0-.012.466h.616v-.4q0-.427,0-.855v-.034l.017-.03c.053-.087.1-.178.151-.269s.089-.165.137-.247c.256-.477.519-.957.782-1.436l.038-.07c-.23,0-.462,0-.689,0-.109.235-.225.468-.34.7-.1.2-.2.394-.29.593l-.126.266-.1-.275a3.15,3.15,0,0,0-.143-.306l-.036-.072c-.077-.166-.156-.325-.236-.484-.07-.14-.14-.281-.207-.424-.227,0-.455,0-.681,0,.165.315.336.626.507.938C145.57,163.035,145.716,163.3,145.857,163.566Z" fill="#fff"/>
      <path id="Path_437" data-name="Path 437" d="M145.6,161.832c.067.143.137.284.207.424.08.159.159.318.236.484l.036.072a3.15,3.15,0,0,1,.143.306l.1.275.126-.266c.094-.2.192-.4.29-.593.115-.232.231-.465.34-.7.227,0,.459-.006.689,0l-.038.07c-.263.479-.526.959-.782,1.436-.048.082-.093.164-.137.247s-.1.182-.151.269l-.017.03v.034q0,.428,0,.855v.4h-.616a4.366,4.366,0,0,1,.012-.466,1.749,1.749,0,0,0-.182-1.141c-.141-.266-.287-.531-.432-.8-.171-.312-.342-.623-.507-.938C145.144,161.83,145.372,161.831,145.6,161.832Z" fill="#fff"/>
      <path id="Path_438" data-name="Path 438" d="M152.877,163.352l-.1.195-.114-.188q-.4-.658-.8-1.314c-.023-.04-.045-.076-.066-.111l-.061-.1c-.172,0-.346,0-.517,0h-.13q0,1.1,0,2.2v1.142h.168c.145,0,.29,0,.435,0v-.344c0-.527,0-1.054,0-1.581l.005-.425.225.361c.093.147.181.313.27.48a3.511,3.511,0,0,0,.594.9c.1-.164.2-.325.3-.486.179-.288.364-.585.519-.888l.234-.456,0,.513q0,.635,0,1.271v.657h.6q0-1.671,0-3.341-.327,0-.652,0c-.1.159-.195.317-.294.476C153.284,162.647,153.065,163,152.877,163.352Z" fill="#fff"/>
      <path id="Path_439" data-name="Path 439" d="M154.442,161.832q0,1.671,0,3.341h-.6v-.657q0-.636,0-1.271l0-.513-.234.456c-.155.3-.34.6-.519.888-.1.161-.2.322-.3.486a3.511,3.511,0,0,1-.594-.9c-.089-.167-.177-.333-.27-.48l-.225-.361-.005.425c-.007.527,0,1.054,0,1.581v.344c-.145,0-.29,0-.435,0h-.168v-1.142q0-1.1,0-2.2h.13c.171,0,.345,0,.517,0l.061.1c.021.035.043.071.066.111q.405.655.8,1.314l.114.188.1-.195c.188-.355.407-.705.619-1.044.1-.159.2-.317.294-.476Q154.116,161.83,154.442,161.832Z" fill="#fff"/>
      <path id="Path_440" data-name="Path 440" d="M156.562,163.106l-.12.2-.1-.212c-.091-.191-.185-.38-.279-.569-.116-.231-.23-.462-.339-.7q-.344,0-.687,0l.334.612q.384.705.766,1.41l.015.054c.014.3.012.611.01.909,0,.119,0,.238,0,.357.145,0,.29,0,.436,0h.168V164.8c0-.282,0-.566,0-.848l.014-.055c.224-.444.469-.888.7-1.317.136-.247.272-.495.406-.744-.228,0-.46-.008-.685.005-.079.152-.153.307-.227.462C156.85,162.568,156.717,162.846,156.562,163.106Z" fill="#fff"/>
      <path id="Path_441" data-name="Path 441" d="M163.8,161.831h-.174l-.049.2q-.218.876-.432,1.752c-.017.06-.03.116-.043.173-.018.078-.037.157-.06.234l-.127.412-.179-.657c-.079-.289-.157-.578-.239-.866-.048-.178-.1-.354-.145-.53q-.1-.357-.195-.715c-.141,0-.283,0-.424,0h-.085c-.04.16-.084.318-.128.476l-.064.232c-.053.2-.11.4-.167.6-.1.35-.2.711-.281,1.069l-.116.531-.127-.528q-.282-1.173-.579-2.344l-.007-.039c-.172,0-.342,0-.513,0h-.123l0,.009c.027.091.052.181.076.271.02.073.04.147.062.219l.142.521c.07.255.14.511.212.765l.02.07c.018.066.036.132.051.2l.025.058a.993.993,0,0,0,.035.16c.039.132.075.264.111.4s.075.27.115.4l.013.048c.019.073.039.147.056.22.167,0,.332,0,.5,0h.285c.083-.321.172-.639.261-.958.1-.343.192-.685.28-1.029l.129-.507.114.51c.1.436.221.875.341,1.3.065.227.129.455.19.683.261,0,.521.005.78,0,.063-.243.131-.485.2-.726.052-.187.1-.374.154-.562.034-.111.063-.22.092-.328l.042-.158c.011-.035.019-.067.027-.1l.019-.07c.053-.179.1-.357.15-.535l.025-.093c.037-.126.07-.251.1-.375s.07-.262.108-.391C164.106,161.829,163.953,161.83,163.8,161.831Z" fill="#fff"/>
      <path id="Path_442" data-name="Path 442" d="M167.172,163.99c-.137-.407-.274-.813-.416-1.219l-.043-.133c-.038-.113-.077-.225-.116-.338-.054-.156-.108-.311-.158-.468-.3,0-.6,0-.895,0-.056.174-.115.348-.175.52l-.1.287c-.034.106-.071.212-.108.319s-.079.227-.115.341c-.024.058-.039.107-.055.156s-.033.1-.053.149c-.112.348-.234.7-.356,1.054l-.022.066c-.017.045-.031.087-.044.131l-.067.193c-.014.042-.028.084-.043.126h.668l.022-.071c.042-.134.085-.27.135-.4l.031-.082.088,0q.639.009,1.28,0l.088,0,.031.083c.059.157.111.321.155.47.224,0,.447,0,.669,0l-.108-.312C167.368,164.571,167.27,164.28,167.172,163.99Zm-1.739.1.044-.159c.054-.194.117-.386.18-.579.076-.23.154-.469.214-.706l.121-.484.121.484c.059.235.137.471.211.7.064.195.128.389.182.586l.044.159Z" fill="#fff"/>
      <path id="Path_443" data-name="Path 443" d="M168.991,163.128l-.119.255-.11-.259c-.1-.244-.225-.487-.343-.723-.1-.187-.19-.375-.277-.567-.207,0-.428-.005-.69,0,.279.505.553,1.011.828,1.518l.292.563c.011.3.009.6.007.9,0,.119,0,.238,0,.358h.6v-.317c0-.314,0-.627,0-.941l.016-.059.276-.5c.275-.5.559-1.011.826-1.524l-.37,0c-.1,0-.211,0-.316.005-.11.245-.232.489-.349.725C169.174,162.748,169.08,162.937,168.991,163.128Z" fill="#fff"/>
      <path id="Path_444" data-name="Path 444" d="M149.96,164.508a.309.309,0,0,0-.093.014l-.016,0a.334.334,0,0,0-.257.241.354.354,0,0,0,.067.356.362.362,0,0,0,.347.128.368.368,0,0,0,.295-.221.362.362,0,0,0-.071-.39A.377.377,0,0,0,149.96,164.508Z" fill="#fff"/>
    </g>
  </g>
</svg>
