<svg xmlns="http://www.w3.org/2000/svg" width="101.399" height="49.636" viewBox="0 0 101.399 49.636">
  <g id="Group_234" data-name="Group 234" transform="translate(-91.811 -400.432)">
    <g id="Group_228" data-name="Group 228">
      <path id="Path_462" data-name="Path 462" d="M167.692,400.911a2.728,2.728,0,0,1,4.073,3.139c-1.249,5.186-5.843,8.635-9.779,11.847a8.38,8.38,0,0,0-.95-1.681c-.1,2.293-.711,4.957.756,6.951.9,1.135,2.51.419,3.228-.554a23.64,23.64,0,0,0,3.469-6.788c.714.493,1.506.848,2.253,1.285-1.575,3.754-3.413,9.343-8.315,9.308-3.139-.343-4.271-3.962-4.121-6.674C158.435,411.158,161.876,404.228,167.692,400.911Zm.1,2.672a23.158,23.158,0,0,0-6.481,9.843c2.931-2.283,5.851-4.886,7.543-8.251C169.482,404.378,168.873,402.6,167.8,403.583Z" fill="#01135f"/>
    </g>
    <g id="Group_229" data-name="Group 229">
      <path id="Path_463" data-name="Path 463" d="M151.753,407.115c1.669-1.8,5.743-2.285,5.867.983-.371,5.8-5.8,9.46-9.813,12.97a10.75,10.75,0,0,0-.917-1.742c-.236,2.285-.734,4.891.676,6.9.81,1.031,2.27.617,3.037-.234a21.167,21.167,0,0,0,3.667-7.011c.749.391,1.506.772,2.22,1.229-1.107,3.243-2.55,6.773-5.534,8.71a4.183,4.183,0,0,1-6.156-2.173C142.55,419.684,146.3,411.7,151.753,407.115Zm1.87,1.585a22.292,22.292,0,0,0-6.456,9.864c2.91-2.329,5.828-4.934,7.537-8.3C155.324,409.467,154.666,407.766,153.623,408.7Z" fill="#01135f"/>
    </g>
    <path id="Path_464" data-name="Path 464" d="M170.224,410.7a65.278,65.278,0,0,0,14.044-3.192c.523.538,1.041,1.079,1.564,1.62-4.424,6.53-8.352,13.381-12.754,19.926a93.712,93.712,0,0,1,15.1-4.955c-.083.909-.205,1.816-.279,2.725a77.851,77.851,0,0,0-18.448,6.291c-.182-.66-.393-1.311-.627-1.953,4.653-6.613,8.8-13.554,13.049-20.426a83.741,83.741,0,0,1-10.405,2.41C171.026,412.347,170.648,411.511,170.224,410.7Z" fill="#01135f"/>
    <path id="Path_465" data-name="Path 465" d="M128.422,417.279a52.591,52.591,0,0,1,6.842-8.426,20.766,20.766,0,0,0,2.506,1.734c-7.458,5.44-11.583,14.242-12.378,23.311-.914-.152-1.818-.366-2.742-.442,1.49-7.093,2.923-14.211,3.928-21.4.9.119,1.806.216,2.705.348C128.966,414.026,128.745,415.661,128.422,417.279Z" fill="#01135f"/>
    <path id="Path_466" data-name="Path 466" d="M97.721,430.368c4.411-5.384,9.524-10.161,14.427-15.083a26.3,26.3,0,0,0,1.466,2.761,156.538,156.538,0,0,0-12.993,12.7,78.888,78.888,0,0,0,14.3,17.64c-.853.538-1.638,1.178-2.516,1.679a98.532,98.532,0,0,1-13.5-17.364c-.8.94-1.973,1.755-2.077,3.1-.749,4.726-1.869,9.392-2.685,14.108-.774-.341-1.569-.638-2.339-.991,1.344-9.988,3.84-19.849,5.511-29.81.877.242,1.76.452,2.619.747C99.075,423.333,98.478,426.866,97.721,430.368Z" fill="#01135f"/>
    <path id="Path_467" data-name="Path 467" d="M132.087,430.129c2.738-4.444,5.328-9.058,8.934-12.886a22.462,22.462,0,0,0,2.243,1.494c-2.311,7.418-3.068,15.192-3.853,22.886-.912-.228-1.826-.441-2.748-.614.843-5.831,1.24-11.774,2.819-17.465a85.984,85.984,0,0,0-9.587,18.671c-.812-.172-1.625-.338-2.443-.477q2.194-10.906,3.779-21.93c.917.165,1.834.351,2.761.452C133.491,423.572,132.828,426.863,132.087,430.129Z" fill="#01135f"/>
    <g id="Group_230" data-name="Group 230">
      <path id="Path_468" data-name="Path 468" d="M117.6,417.675c2.892-.434,4.347,2.715,4.525,5.12.361,6.293-1.275,13.29-5.991,17.742a3.887,3.887,0,0,1-6.471-2.174c-1.346-4.937.066-10.156,2-14.743C112.936,421.126,114.67,418.315,117.6,417.675Zm-.562,2.956c-3.928,3.4-4.927,9.163-5.285,14.118-.256,1.706.821,5.419,3.05,3.494,3.457-3.845,4.6-9.358,4.64-14.409C119.422,422.51,118.937,419.783,117.042,420.631Z" fill="#01135f"/>
    </g>
    <g id="Group_233" data-name="Group 233">
      <g id="Group_231" data-name="Group 231">
        <path id="Path_469" data-name="Path 469" d="M191.84,407.409a.09.09,0,0,1-.008.039.071.071,0,0,1-.04.026.408.408,0,0,1-.092.015c-.041,0-.1,0-.166,0s-.106,0-.141,0a.305.305,0,0,1-.083-.016.085.085,0,0,1-.043-.029.133.133,0,0,1-.021-.043l-.244-.607c-.029-.069-.058-.13-.086-.183a.558.558,0,0,0-.094-.134.356.356,0,0,0-.118-.081.418.418,0,0,0-.156-.027h-.172V407.4a.061.061,0,0,1-.014.038.1.1,0,0,1-.045.027.424.424,0,0,1-.084.017,1.225,1.225,0,0,1-.134.006,1.238,1.238,0,0,1-.134-.006.436.436,0,0,1-.085-.017.087.087,0,0,1-.044-.027.067.067,0,0,1-.013-.038v-2.469a.166.166,0,0,1,.048-.133.171.171,0,0,1,.116-.041h.7c.072,0,.13,0,.177,0s.088.006.126.011a1.169,1.169,0,0,1,.295.079.72.72,0,0,1,.223.149.617.617,0,0,1,.139.216.8.8,0,0,1,.049.287.846.846,0,0,1-.035.249.62.62,0,0,1-.1.2.681.681,0,0,1-.166.154.933.933,0,0,1-.225.105.594.594,0,0,1,.115.071.651.651,0,0,1,.1.1,1.044,1.044,0,0,1,.089.137,1.888,1.888,0,0,1,.082.173l.229.536c.021.053.035.092.042.116A.225.225,0,0,1,191.84,407.409Zm-.712-1.845a.4.4,0,0,0-.061-.226.328.328,0,0,0-.2-.131.944.944,0,0,0-.1-.017,1.412,1.412,0,0,0-.148-.006h-.248v.771h.282a.664.664,0,0,0,.205-.028.414.414,0,0,0,.147-.08.319.319,0,0,0,.089-.123A.426.426,0,0,0,191.128,405.564Z" fill="#01135f"/>
      </g>
      <g id="Group_232" data-name="Group 232">
        <path id="Path_470" data-name="Path 470" d="M190.629,408.866a2.581,2.581,0,1,1,2.581-2.58A2.583,2.583,0,0,1,190.629,408.866Zm0-4.78a2.2,2.2,0,1,0,2.2,2.2A2.2,2.2,0,0,0,190.629,404.086Z" fill="#01135f"/>
      </g>
    </g>
  </g>
</svg>
