<?xml version="1.0" encoding="utf-8"?>
<!-- Generator: Adobe Illustrator 25.1.0, SVG Export Plug-In . SVG Version: 6.00 Build 0)  -->
<svg version="1.1" id="Layer_1" xmlns="http://www.w3.org/2000/svg" xmlns:xlink="http://www.w3.org/1999/xlink" x="0px" y="0px"
	 viewBox="0 0 319 163" style="enable-background:new 0 0 319 163;" xml:space="preserve">
<style type="text/css">
	.st0{fill:#FC153B;}
	.st1{fill:#FFFFFF;}
	.st2{fill:#FFDE14;}
	.st3{fill:#FDBC2C;}
</style>
<rect class="st0" width="319" height="163"/>
<g id="Group_381" transform="translate(-11017.483 -10221)">
	<g id="Group_374">
		<g id="Group_368">
			<path id="Path_612" class="st1" d="M11290.7,10322.5c-0.3,0-0.5-0.2-0.5-0.5v0v-69.5c0-0.3-0.2-0.5-0.5-0.5c-0.1,0-0.1,0-0.2,0
				c0,0-4.8,3.3-10,7.7c-2.8,2.3-5.5,4.8-8.1,7.4c0,0-0.7,0.6-0.7,1.1v52.7c0,5.8,1.5,10.3,4.4,13.4s8.8,4.6,15.1,4.6h7.6
				c0.4,0,0.6-0.3,0.6-0.6c0,0,0,0,0,0v-15.1c0-0.4-0.3-0.6-0.6-0.6L11290.7,10322.5z"/>
		</g>
		<g id="Group_373">
			<g id="Group_371">
				<g id="Group_369">
					<path id="Path_613" class="st2" d="M11266.3,10270.7c-0.2-0.2-0.4-0.4-0.7-0.4c-5.9,0-11.9,0-17.8-0.1c-0.4,0-0.7,0.2-0.8,0.6
						c-2.5,9-5.1,18-7.8,27c-2,7.7-4,15.3-6,23c-1.9-7.7-3.9-15.3-5.9-23c-2.8-9-5.6-18.1-8.5-27.1c-0.1-0.4-0.5-0.6-0.8-0.6
						c-2.9,10.9-5.9,21.8-9,32.8c3.9,11.8,7.7,23.6,11.5,35.4c0.1,0.4,0.4,0.6,0.8,0.6c7.5,0,14.9,0,22.4-0.1c0.4,0,0.7-0.2,0.8-0.6
						c7.6-22.3,15.1-44.6,21.9-66.9C11266.6,10271.3,11266.5,10271,11266.3,10270.7z"/>
				</g>
				<g id="Group_370">
					<path id="Path_614" class="st1" d="M11218.1,10270.2h-1.3h0c-5.8,0-11.5,0-17.3,0h-0.1c-0.4,0-0.8,0.3-0.8,0.7
						c-2.1,9-4.3,18.1-6.5,27.1c-1.4,6-2.7,12-4.1,18.1c-1.6-6-3.2-12.1-4.9-18.1c-2.6-9-5.2-18.1-7.7-27.1
						c-0.1-0.4-0.4-0.6-0.8-0.6c-5.7,0-11.4,0-17.2,0c-0.4,0-0.7,0.3-0.8,0.6c-2.6,9-5.2,18.1-7.8,27.1c-1.6,6-3.2,12-4.7,18
						c-1.4-6-2.7-12-4.1-18c-2.1-9-4.2-18-6.3-27c-0.1-0.4-0.4-0.7-0.8-0.7c-6.1,0-12.1,0-18.2,0.1c-0.3,0-0.5,0.1-0.7,0.3
						c-0.2,0.2-0.2,0.5-0.2,0.8c5.8,22.2,12.1,44.5,18.7,66.8c0.1,0.4,0.5,0.6,0.8,0.6c6.4,0,12.9,0,19.3,0.1c0.4,0,0.7-0.3,0.8-0.6
						c2.6-9.4,5.3-18.9,8-28.3c1.3-5,2.6-9.8,4-14.8c1.3,5,2.7,9.8,4.1,14.8c2.7,9.5,5.5,18.9,8.2,28.4c0.1,0.4,0.4,0.6,0.8,0.6
						c6.6,0,13.1,0,19.7,0c0.4,0,0.7-0.3,0.8-0.6c3.3-11.8,6.6-23.7,9.9-35.5l0,0.1
						C11212.1,10292.1,11215.1,10281.2,11218.1,10270.2L11218.1,10270.2z"/>
				</g>
			</g>
			<g id="Group_372">
				<path id="Path_615" class="st3" d="M11220.6,10276.6l-9.8,31.9l-1.8-5.5l9.1-32.7c0.4,0,0.7,0.3,0.8,0.7L11220.6,10276.6z"/>
			</g>
		</g>
		<path id="Path_616" class="st1" d="M11112.8,10316.4c-0.3-7-2.9-14.7-19.5-20.1c-0.9-0.3-1.8-0.6-2.6-0.8
			c-5.9-1.9-11.6-3.4-11.8-6.9c-0.1-3.3,3.5-5.1,8.3-5.3c4.2-0.2,8.6,1.4,13.8,4.7c0.5,0.3,1.1,0.2,1.4-0.3c2.7-3.8,5.3-7.6,8-11.5
			c0.2-0.2,0.2-0.5,0.2-0.8c0-0.3-0.2-0.5-0.4-0.7c-7.1-4.9-15.6-7.4-24.2-7.1c-16.1,0.5-27.5,9-26.9,22.2
			c0.4,9.1,7.9,15.2,20.3,19.4c0.8,0.3,1.6,0.5,2.3,0.8c6.1,2.1,11.6,4.1,11.7,7.8c0.1,3.5-2.9,5.7-8.4,5.9c-0.2,0-0.4,0-0.7,0
			c-5.1,0-10.3-1.9-16.3-6c-0.5-0.3-1.1-0.2-1.5,0.3c0,0,0,0,0,0c-2.7,4-5.4,8-8.1,12c-0.3,0.5-0.2,1.1,0.2,1.4
			c7.5,5,16.2,7.7,25.2,7.8c0.4,0,0.7,0,1.1,0C11102.7,10338.8,11113.4,10330.2,11112.8,10316.4z"/>
	</g>
	<g id="Group_380">
		<g id="Group_377">
			<g id="Group_376">
				<g id="Group_375">
					<path id="Path_617" class="st1" d="M11310,10327.4l-0.6-1.3h-0.7v1.3h-0.6v-3.3h1.4c0.6-0.1,1.1,0.3,1.2,0.9c0,0,0,0.1,0,0.1
						c0,0.4-0.2,0.8-0.6,0.9l0.6,1.4H11310z M11309.5,10324.6h-0.8v1h0.8c0.3,0,0.5-0.2,0.5-0.5
						C11310,10324.8,11309.8,10324.6,11309.5,10324.6C11309.5,10324.6,11309.5,10324.6,11309.5,10324.6L11309.5,10324.6z"/>
				</g>
			</g>
		</g>
		<g id="Group_379">
			<g id="Group_378">
				<path id="Path_618" class="st1" d="M11309.3,10329.2c-1.9,0-3.4-1.5-3.4-3.4c0-1.9,1.5-3.4,3.4-3.4c1.9,0,3.4,1.5,3.4,3.4
					c0,0,0,0,0,0C11312.7,10327.6,11311.1,10329.2,11309.3,10329.2z M11309.3,10322.9c-1.5,0-2.8,1.3-2.8,2.8c0,1.5,1.3,2.8,2.8,2.8
					c1.5,0,2.8-1.2,2.8-2.8C11312,10324.2,11310.8,10322.9,11309.3,10322.9z"/>
			</g>
		</g>
	</g>
</g>
</svg>
