<svg xmlns="http://www.w3.org/2000/svg" xmlns:xlink="http://www.w3.org/1999/xlink" width="114.843" height="34.5" viewBox="0 0 114.843 34.5">
  <defs>
    <linearGradient id="linear-gradient" x1="0.402" y1="1.015" x2="1.372" y2="0.057" gradientUnits="objectBoundingBox">
      <stop offset="0" stop-color="#ec8e2d"/>
      <stop offset="0.066" stop-color="#ec9031"/>
      <stop offset="0.144" stop-color="#ee9840"/>
      <stop offset="0.228" stop-color="#f0a557"/>
      <stop offset="0.316" stop-color="#f4b779"/>
      <stop offset="0.408" stop-color="#f8cfa3"/>
      <stop offset="0.5" stop-color="#fdebd7"/>
      <stop offset="0.517" stop-color="#fff1e1"/>
      <stop offset="0.567" stop-color="#f9dbbc"/>
      <stop offset="0.63" stop-color="#f4c596"/>
      <stop offset="0.695" stop-color="#f0b276"/>
      <stop offset="0.762" stop-color="#eda45d"/>
      <stop offset="0.833" stop-color="#ea994c"/>
      <stop offset="0.909" stop-color="#e99342"/>
      <stop offset="1" stop-color="#e9923f"/>
    </linearGradient>
    <filter id="Path_1230" x="0" y="0" width="13.59" height="34.5" filterUnits="userSpaceOnUse">
      <feOffset dy="1" input="SourceAlpha"/>
      <feGaussianBlur stdDeviation="0.5" result="blur"/>
      <feFlood flood-opacity="0.451"/>
      <feComposite operator="in" in2="blur"/>
      <feComposite in="SourceGraphic"/>
    </filter>
    <linearGradient id="linear-gradient-2" y1="0.5" x2="1" y2="0.5" gradientUnits="objectBoundingBox">
      <stop offset="0" stop-color="#39336f"/>
      <stop offset="0.099" stop-color="#3a3772"/>
      <stop offset="0.217" stop-color="#40467e"/>
      <stop offset="0.343" stop-color="#495d90"/>
      <stop offset="0.474" stop-color="#557eaa"/>
      <stop offset="0.517" stop-color="#5a8bb4"/>
      <stop offset="0.572" stop-color="#4a6e98"/>
      <stop offset="0.647" stop-color="#394f7a"/>
      <stop offset="0.725" stop-color="#2c3662"/>
      <stop offset="0.807" stop-color="#232552"/>
      <stop offset="0.895" stop-color="#1d1b48"/>
      <stop offset="1" stop-color="#1c1845"/>
    </linearGradient>
    <filter id="Path_1231" x="10.621" y="0" width="13.59" height="34.5" filterUnits="userSpaceOnUse">
      <feOffset dy="1" input="SourceAlpha"/>
      <feGaussianBlur stdDeviation="0.5" result="blur-2"/>
      <feFlood flood-opacity="0.451"/>
      <feComposite operator="in" in2="blur-2"/>
      <feComposite in="SourceGraphic"/>
    </filter>
  </defs>
  <g id="Group_285" data-name="Group 285" transform="translate(-517.995 -409)">
    <g id="Group_282" data-name="Group 282">
      <path id="Path_1200" data-name="Path 1200" d="M553.492,432.478v1.941H542.045V415.236h2.3v17.242Z" fill="#404040"/>
      <path id="Path_1201" data-name="Path 1201" d="M564.656,417.011h-5.525v17.6h-2.3v-17.6h-5.537v-1.942h13.361Z" fill="#404040"/>
      <path id="Path_1202" data-name="Path 1202" d="M568.619,434.565h-2.31V415.028h2.31Z" fill="#404040"/>
      <path id="Path_1203" data-name="Path 1203" d="M583.521,417.177h-5.526v17.242h-2.3V417.177h-5.538v-1.941h13.362Z" fill="#404040"/>
      <path id="Path_1204" data-name="Path 1204" d="M591.8,432.751a9,9,0,0,0,2.6-.357,3.983,3.983,0,0,0,1.411-1,4.369,4.369,0,0,0,.881-1.537,6.08,6.08,0,0,0,.3-1.965V415.4h2.3v12.49a7.8,7.8,0,0,1-.47,2.74,6.365,6.365,0,0,1-1.346,2.185,6.168,6.168,0,0,1-2.138,1.447,11.425,11.425,0,0,1-3.54.524,9.26,9.26,0,0,1-3.187-.524,6.231,6.231,0,0,1-2.144-1.447,6.319,6.319,0,0,1-1.352-2.185,7.8,7.8,0,0,1-.47-2.74V415.4h2.3v12.479a6.078,6.078,0,0,0,.3,1.964,4.384,4.384,0,0,0,.881,1.537,4.017,4.017,0,0,0,1.418,1.006A6.649,6.649,0,0,0,591.8,432.751Z" fill="#404040"/>
      <path id="Path_1205" data-name="Path 1205" d="M618.012,426.131a9.6,9.6,0,0,1-.607,3.489,7.746,7.746,0,0,1-1.715,2.692,7.639,7.639,0,0,1-2.662,1.733,9.278,9.278,0,0,1-3.435.613h-7.078V415.121h7.078a9.278,9.278,0,0,1,3.435.614,7.6,7.6,0,0,1,2.662,1.738,7.818,7.818,0,0,1,1.715,2.7A28.135,28.135,0,0,1,618.012,426.131Zm-2.37,0a31,31,0,0,0-.428-5.281,5.919,5.919,0,0,0-1.215-2.1,5.177,5.177,0,0,0-1.906-1.31,6.61,6.61,0,0,0-2.5-.453h-4.767v15.8h4.767a6.61,6.61,0,0,0,2.5-.452,5.223,5.223,0,0,0,1.906-1.3,5.874,5.874,0,0,0,1.215-2.09A8.591,8.591,0,0,0,615.642,426.131Z" fill="#404040"/>
      <path id="Path_1206" data-name="Path 1206" d="M632.838,432.5l-.012,1.882H620.193V415.194h12.633v1.882H622.5v6.374h8.41v1.811H622.5V432.5Z" fill="#404040"/>
    </g>
    <g id="Group_283" data-name="Group 283">
      <path id="Path_1207" data-name="Path 1207" d="M546,436.426l-2.174,4.4a.314.314,0,0,1-.087.108.257.257,0,0,1-.159.04h-.508l.712-1.35-1.609-3.2h.593a.226.226,0,0,1,.14.039.193.193,0,0,1,.071.085l1.043,2.143a2.141,2.141,0,0,1,.1.3c.036-.105.074-.205.115-.3l1.012-2.139a.209.209,0,0,1,.079-.089.233.233,0,0,1,.125-.035Z" fill="#404040"/>
      <path id="Path_1208" data-name="Path 1208" d="M548.138,436.372a2.235,2.235,0,0,1,.769.125,1.652,1.652,0,0,1,.585.352,1.515,1.515,0,0,1,.371.553,2.1,2.1,0,0,1,0,1.448,1.516,1.516,0,0,1-.371.551,1.65,1.65,0,0,1-.585.351,2.26,2.26,0,0,1-.769.123,2.3,2.3,0,0,1-.776-.123,1.654,1.654,0,0,1-.586-.351,1.518,1.518,0,0,1-.372-.551,2.112,2.112,0,0,1,0-1.448,1.517,1.517,0,0,1,.372-.553,1.656,1.656,0,0,1,.586-.352A2.276,2.276,0,0,1,548.138,436.372Zm0,3.036a1.066,1.066,0,0,0,.862-.338,1.711,1.711,0,0,0,0-1.888,1.064,1.064,0,0,0-.862-.339,1.369,1.369,0,0,0-.51.087.93.93,0,0,0-.362.252,1.05,1.05,0,0,0-.215.4,1.889,1.889,0,0,0-.071.543,1.409,1.409,0,0,0,.286.941A1.081,1.081,0,0,0,548.138,439.408Z" fill="#404040"/>
      <path id="Path_1209" data-name="Path 1209" d="M554.063,436.426v3.4h-.408a.173.173,0,0,1-.185-.125l-.053-.366a2.14,2.14,0,0,1-.57.395,1.677,1.677,0,0,1-.723.149,1.581,1.581,0,0,1-.564-.092,1.133,1.133,0,0,1-.41-.26,1.073,1.073,0,0,1-.248-.407,1.6,1.6,0,0,1-.083-.527v-2.169h.685V438.6a.834.834,0,0,0,.2.6.819.819,0,0,0,.618.212,1.3,1.3,0,0,0,.567-.126,1.773,1.773,0,0,0,.487-.348v-2.505Z" fill="#404040"/>
      <path id="Path_1210" data-name="Path 1210" d="M555.8,437.108a1.559,1.559,0,0,1,.454-.546,1.087,1.087,0,0,1,.658-.2,1.22,1.22,0,0,1,.237.023.685.685,0,0,1,.2.074l-.05.447a.106.106,0,0,1-.115.084.876.876,0,0,1-.158-.021,1.269,1.269,0,0,0-.234-.02,1.071,1.071,0,0,0-.329.047.8.8,0,0,0-.258.14.982.982,0,0,0-.2.228,1.816,1.816,0,0,0-.163.311v2.149h-.689v-3.4h.392a.235.235,0,0,1,.154.037.213.213,0,0,1,.058.128Z" fill="#404040"/>
      <path id="Path_1211" data-name="Path 1211" d="M562.027,436.987a.156.156,0,0,1-.142.074.3.3,0,0,1-.131-.037c-.049-.025-.108-.052-.179-.082a1.651,1.651,0,0,0-.252-.084,1.357,1.357,0,0,0-.346-.039,1.148,1.148,0,0,0-.312.039.788.788,0,0,0-.236.105.481.481,0,0,0-.15.156.377.377,0,0,0-.052.194.3.3,0,0,0,.086.218.748.748,0,0,0,.229.151,2.1,2.1,0,0,0,.323.112q.182.049.372.1c.127.036.25.077.371.122a1.429,1.429,0,0,1,.323.168.794.794,0,0,1,.229.247.671.671,0,0,1,.086.351,1,1,0,0,1-.1.435.956.956,0,0,1-.285.345,1.412,1.412,0,0,1-.461.23,2.152,2.152,0,0,1-.631.084,2.209,2.209,0,0,1-.739-.116,1.928,1.928,0,0,1-.562-.3l.162-.228a.221.221,0,0,1,.073-.067.216.216,0,0,1,.108-.024.284.284,0,0,1,.146.047c.051.032.113.066.187.1a1.581,1.581,0,0,0,.267.105,1.412,1.412,0,0,0,.393.046,1.224,1.224,0,0,0,.35-.045.778.778,0,0,0,.25-.122.507.507,0,0,0,.148-.178.494.494,0,0,0,.048-.215.329.329,0,0,0-.087-.234.73.73,0,0,0-.229-.158,2.113,2.113,0,0,0-.325-.114c-.122-.032-.246-.066-.373-.1s-.251-.077-.373-.123a1.337,1.337,0,0,1-.325-.172.827.827,0,0,1-.229-.257.74.74,0,0,1-.087-.371.807.807,0,0,1,.093-.375.921.921,0,0,1,.269-.315,1.384,1.384,0,0,1,.435-.217,1.962,1.962,0,0,1,.588-.081,2.119,2.119,0,0,1,.691.106,1.7,1.7,0,0,1,.529.291Z" fill="#404040"/>
      <path id="Path_1212" data-name="Path 1212" d="M566.294,436.426v3.4h-.408a.173.173,0,0,1-.185-.125l-.053-.366a2.14,2.14,0,0,1-.57.395,1.677,1.677,0,0,1-.723.149,1.581,1.581,0,0,1-.564-.092,1.134,1.134,0,0,1-.41-.26,1.073,1.073,0,0,1-.248-.407,1.6,1.6,0,0,1-.082-.527v-2.169h.684V438.6a.834.834,0,0,0,.2.6.819.819,0,0,0,.618.212,1.3,1.3,0,0,0,.567-.126,1.774,1.774,0,0,0,.487-.348v-2.505Z" fill="#404040"/>
      <path id="Path_1213" data-name="Path 1213" d="M570.091,437.031a.321.321,0,0,1-.061.057.16.16,0,0,1-.085.02.25.25,0,0,1-.127-.042q-.069-.042-.171-.093a1.529,1.529,0,0,0-.25-.092,1.532,1.532,0,0,0-.871.047.96.96,0,0,0-.368.257,1.1,1.1,0,0,0-.223.406,1.776,1.776,0,0,0-.075.534,1.715,1.715,0,0,0,.081.549,1.11,1.11,0,0,0,.229.4.971.971,0,0,0,.357.249,1.241,1.241,0,0,0,.472.085,1.353,1.353,0,0,0,.411-.052,1.234,1.234,0,0,0,.268-.116c.07-.042.129-.081.177-.116a.241.241,0,0,1,.14-.052.16.16,0,0,1,.131.057l.192.219a1.283,1.283,0,0,1-.288.235,1.913,1.913,0,0,1-.348.163,2.167,2.167,0,0,1-.391.1,2.713,2.713,0,0,1-.415.031,1.935,1.935,0,0,1-.68-.118,1.53,1.53,0,0,1-.906-.89,2.14,2.14,0,0,1-.009-1.444,1.552,1.552,0,0,1,.354-.555,1.619,1.619,0,0,1,.573-.365,2.178,2.178,0,0,1,.783-.131,2.092,2.092,0,0,1,.725.116,1.78,1.78,0,0,1,.556.328Z" fill="#404040"/>
      <path id="Path_1214" data-name="Path 1214" d="M573.7,437.031a.353.353,0,0,1-.062.057.16.16,0,0,1-.085.02.251.251,0,0,1-.127-.042q-.069-.042-.171-.093a1.529,1.529,0,0,0-.25-.092,1.532,1.532,0,0,0-.871.047.96.96,0,0,0-.368.257,1.1,1.1,0,0,0-.223.406,1.776,1.776,0,0,0-.075.534,1.714,1.714,0,0,0,.081.549,1.123,1.123,0,0,0,.229.4.978.978,0,0,0,.357.249,1.24,1.24,0,0,0,.472.085,1.353,1.353,0,0,0,.411-.052,1.237,1.237,0,0,0,.268-.116c.07-.042.129-.081.177-.116a.241.241,0,0,1,.14-.052.159.159,0,0,1,.131.057l.193.219a1.313,1.313,0,0,1-.289.235,1.913,1.913,0,0,1-.348.163,2.167,2.167,0,0,1-.391.1,2.713,2.713,0,0,1-.415.031,1.926,1.926,0,0,1-.679-.118,1.523,1.523,0,0,1-.906-.89,2.133,2.133,0,0,1-.01-1.444,1.553,1.553,0,0,1,.354-.555,1.619,1.619,0,0,1,.573-.365,2.178,2.178,0,0,1,.783-.131,2.089,2.089,0,0,1,.725.116,1.78,1.78,0,0,1,.556.328Z" fill="#404040"/>
      <path id="Path_1215" data-name="Path 1215" d="M577.752,439.351a1.284,1.284,0,0,1-.3.233,2.072,2.072,0,0,1-.379.163,2.727,2.727,0,0,1-.418.1,2.95,2.95,0,0,1-.427.032,2.225,2.225,0,0,1-.744-.12,1.652,1.652,0,0,1-.589-.349,1.587,1.587,0,0,1-.387-.569,2.054,2.054,0,0,1-.138-.779,1.764,1.764,0,0,1,.125-.665,1.521,1.521,0,0,1,.36-.535,1.662,1.662,0,0,1,.573-.356,2.107,2.107,0,0,1,.762-.13,1.992,1.992,0,0,1,.648.1,1.506,1.506,0,0,1,.516.295,1.356,1.356,0,0,1,.34.477,1.612,1.612,0,0,1,.123.646.352.352,0,0,1-.034.189.156.156,0,0,1-.131.047h-2.6a1.775,1.775,0,0,0,.1.56,1.086,1.086,0,0,0,.252.4,1.04,1.04,0,0,0,.385.239,1.5,1.5,0,0,0,.5.079,1.647,1.647,0,0,0,.444-.053,2.246,2.246,0,0,0,.322-.112c.089-.04.164-.078.225-.113a.332.332,0,0,1,.155-.052.157.157,0,0,1,.131.057Zm-.554-1.6a1.038,1.038,0,0,0-.068-.381.832.832,0,0,0-.2-.3.879.879,0,0,0-.314-.195,1.187,1.187,0,0,0-.419-.069,1.148,1.148,0,0,0-.779.25,1.112,1.112,0,0,0-.356.694Z" fill="#404040"/>
      <path id="Path_1216" data-name="Path 1216" d="M580.922,436.987a.156.156,0,0,1-.142.074.3.3,0,0,1-.131-.037c-.049-.025-.109-.052-.179-.082a1.687,1.687,0,0,0-.252-.084,1.357,1.357,0,0,0-.346-.039,1.148,1.148,0,0,0-.312.039.806.806,0,0,0-.237.105.5.5,0,0,0-.15.156.386.386,0,0,0-.052.194.3.3,0,0,0,.087.218.747.747,0,0,0,.229.151,2.1,2.1,0,0,0,.323.112c.121.033.244.068.371.1s.251.077.372.122a1.428,1.428,0,0,1,.323.168.793.793,0,0,1,.229.247.681.681,0,0,1,.086.351,1,1,0,0,1-.1.435.956.956,0,0,1-.285.345,1.412,1.412,0,0,1-.461.23,2.152,2.152,0,0,1-.631.084,2.209,2.209,0,0,1-.739-.116,1.928,1.928,0,0,1-.562-.3l.162-.228a.211.211,0,0,1,.073-.067.216.216,0,0,1,.108-.024.284.284,0,0,1,.146.047c.051.032.113.066.187.1a1.581,1.581,0,0,0,.267.105,1.409,1.409,0,0,0,.392.046,1.219,1.219,0,0,0,.35-.045.757.757,0,0,0,.25-.122.479.479,0,0,0,.2-.393.329.329,0,0,0-.087-.234.741.741,0,0,0-.229-.158,2.148,2.148,0,0,0-.325-.114c-.122-.032-.246-.066-.373-.1s-.251-.077-.373-.123a1.338,1.338,0,0,1-.325-.172.816.816,0,0,1-.229-.257.741.741,0,0,1-.087-.371.818.818,0,0,1,.092-.375.936.936,0,0,1,.27-.315,1.384,1.384,0,0,1,.435-.217,1.957,1.957,0,0,1,.588-.081,2.12,2.12,0,0,1,.691.106,1.7,1.7,0,0,1,.529.291Z" fill="#404040"/>
      <path id="Path_1217" data-name="Path 1217" d="M584.254,436.987a.156.156,0,0,1-.142.074.3.3,0,0,1-.131-.037c-.049-.025-.109-.052-.179-.082a1.688,1.688,0,0,0-.252-.084,1.357,1.357,0,0,0-.346-.039,1.148,1.148,0,0,0-.312.039.794.794,0,0,0-.237.105.5.5,0,0,0-.15.156.386.386,0,0,0-.052.194.3.3,0,0,0,.087.218.748.748,0,0,0,.229.151,2.063,2.063,0,0,0,.323.112c.121.033.244.068.371.1s.251.077.372.122a1.43,1.43,0,0,1,.323.168.8.8,0,0,1,.229.247.682.682,0,0,1,.086.351,1,1,0,0,1-.1.435.956.956,0,0,1-.285.345,1.412,1.412,0,0,1-.461.23,2.157,2.157,0,0,1-.631.084,2.2,2.2,0,0,1-.739-.116,1.929,1.929,0,0,1-.562-.3l.162-.228a.21.21,0,0,1,.073-.067.216.216,0,0,1,.108-.024.287.287,0,0,1,.146.047c.051.032.113.066.186.1a1.626,1.626,0,0,0,.268.105,1.409,1.409,0,0,0,.392.046,1.219,1.219,0,0,0,.35-.045.767.767,0,0,0,.25-.122.509.509,0,0,0,.149-.178.494.494,0,0,0,.048-.215.329.329,0,0,0-.087-.234.742.742,0,0,0-.229-.158,2.151,2.151,0,0,0-.325-.114c-.122-.032-.246-.066-.373-.1s-.251-.077-.373-.123a1.32,1.32,0,0,1-.325-.172.815.815,0,0,1-.229-.257.74.74,0,0,1-.087-.371.818.818,0,0,1,.092-.375.935.935,0,0,1,.27-.315,1.389,1.389,0,0,1,.434-.217,1.968,1.968,0,0,1,.589-.081,2.12,2.12,0,0,1,.691.106,1.7,1.7,0,0,1,.529.291Z" fill="#404040"/>
      <path id="Path_1218" data-name="Path 1218" d="M588.009,436.426v3.4h-.685v-3.4Z" fill="#404040"/>
      <path id="Path_1219" data-name="Path 1219" d="M591.4,436.987a.155.155,0,0,1-.142.074.308.308,0,0,1-.131-.037c-.048-.025-.108-.052-.179-.082a1.614,1.614,0,0,0-.252-.084,1.352,1.352,0,0,0-.346-.039,1.158,1.158,0,0,0-.312.039.788.788,0,0,0-.236.105.481.481,0,0,0-.15.156.377.377,0,0,0-.052.194.3.3,0,0,0,.086.218.748.748,0,0,0,.229.151,2.1,2.1,0,0,0,.323.112q.182.049.372.1c.127.036.25.077.371.122a1.408,1.408,0,0,1,.323.168.794.794,0,0,1,.229.247.671.671,0,0,1,.087.351,1,1,0,0,1-.1.435.977.977,0,0,1-.285.345,1.428,1.428,0,0,1-.462.23,2.147,2.147,0,0,1-.631.084,2.209,2.209,0,0,1-.739-.116,1.935,1.935,0,0,1-.561-.3l.161-.228a.2.2,0,0,1,.181-.091.284.284,0,0,1,.146.047c.052.032.114.066.187.1a1.581,1.581,0,0,0,.267.105,1.412,1.412,0,0,0,.393.046,1.224,1.224,0,0,0,.35-.045.778.778,0,0,0,.25-.122.481.481,0,0,0,.2-.393.333.333,0,0,0-.086-.234.754.754,0,0,0-.229-.158,2.189,2.189,0,0,0-.325-.114c-.122-.032-.247-.066-.374-.1s-.251-.077-.373-.123a1.337,1.337,0,0,1-.325-.172.827.827,0,0,1-.229-.257.74.74,0,0,1-.087-.371.807.807,0,0,1,.093-.375.921.921,0,0,1,.269-.315,1.384,1.384,0,0,1,.435-.217,1.964,1.964,0,0,1,.589-.081,2.117,2.117,0,0,1,.69.106,1.687,1.687,0,0,1,.529.291Z" fill="#404040"/>
      <path id="Path_1220" data-name="Path 1220" d="M596.077,436.372a2.245,2.245,0,0,1,.77.125,1.656,1.656,0,0,1,.584.352,1.517,1.517,0,0,1,.372.553,2.111,2.111,0,0,1,0,1.448,1.518,1.518,0,0,1-.372.551,1.654,1.654,0,0,1-.584.351,2.488,2.488,0,0,1-1.545,0,1.658,1.658,0,0,1-.587-.351,1.515,1.515,0,0,1-.371-.551,2.1,2.1,0,0,1,0-1.448,1.514,1.514,0,0,1,.371-.553,1.66,1.66,0,0,1,.587-.352A2.266,2.266,0,0,1,596.077,436.372Zm0,3.036a1.065,1.065,0,0,0,.862-.338,1.706,1.706,0,0,0,0-1.888,1.062,1.062,0,0,0-.862-.339,1.369,1.369,0,0,0-.51.087.927.927,0,0,0-.361.252,1.052,1.052,0,0,0-.216.4,1.926,1.926,0,0,0-.071.543,1.4,1.4,0,0,0,.287.941A1.079,1.079,0,0,0,596.077,439.408Z" fill="#404040"/>
      <path id="Path_1221" data-name="Path 1221" d="M602,436.426v3.4h-.408a.173.173,0,0,1-.185-.125l-.053-.366a2.126,2.126,0,0,1-.57.395,1.677,1.677,0,0,1-.723.149,1.58,1.58,0,0,1-.564-.092,1.121,1.121,0,0,1-.409-.26,1.075,1.075,0,0,1-.249-.407,1.6,1.6,0,0,1-.082-.527v-2.169h.685V438.6a.829.829,0,0,0,.2.6.815.815,0,0,0,.617.212,1.293,1.293,0,0,0,.567-.126,1.774,1.774,0,0,0,.487-.348v-2.505Z" fill="#404040"/>
      <path id="Path_1222" data-name="Path 1222" d="M603.737,437.108a1.57,1.57,0,0,1,.454-.546,1.087,1.087,0,0,1,.658-.2,1.22,1.22,0,0,1,.237.023.691.691,0,0,1,.2.074l-.05.447a.108.108,0,0,1-.116.084.857.857,0,0,1-.157-.021,1.288,1.288,0,0,0-.235-.02,1.071,1.071,0,0,0-.329.047.806.806,0,0,0-.258.14,1.028,1.028,0,0,0-.2.228,1.811,1.811,0,0,0-.163.311v2.149h-.689v-3.4h.393a.234.234,0,0,1,.153.037.212.212,0,0,1,.058.128Z" fill="#404040"/>
      <path id="Path_1223" data-name="Path 1223" d="M609.966,436.987a.156.156,0,0,1-.142.074.3.3,0,0,1-.131-.037c-.049-.025-.108-.052-.179-.082a1.65,1.65,0,0,0-.252-.084,1.352,1.352,0,0,0-.346-.039,1.153,1.153,0,0,0-.312.039.788.788,0,0,0-.236.105.482.482,0,0,0-.15.156.376.376,0,0,0-.052.194.3.3,0,0,0,.086.218.747.747,0,0,0,.229.151,2.1,2.1,0,0,0,.323.112q.181.049.372.1c.127.036.25.077.371.122a1.428,1.428,0,0,1,.323.168.793.793,0,0,1,.229.247.672.672,0,0,1,.086.351,1,1,0,0,1-.1.435.963.963,0,0,1-.284.345,1.427,1.427,0,0,1-.462.23,2.153,2.153,0,0,1-.631.084,2.208,2.208,0,0,1-.739-.116,1.922,1.922,0,0,1-.561-.3l.161-.228a.22.22,0,0,1,.073-.067.216.216,0,0,1,.108-.024.284.284,0,0,1,.146.047c.051.032.114.066.187.1a1.581,1.581,0,0,0,.267.105,1.412,1.412,0,0,0,.393.046,1.224,1.224,0,0,0,.35-.045.777.777,0,0,0,.25-.122.505.505,0,0,0,.148-.178.494.494,0,0,0,.048-.215.329.329,0,0,0-.087-.234.729.729,0,0,0-.229-.158,2.111,2.111,0,0,0-.325-.114c-.122-.032-.246-.066-.373-.1s-.251-.077-.373-.123a1.338,1.338,0,0,1-.325-.172.828.828,0,0,1-.229-.257.741.741,0,0,1-.087-.371.807.807,0,0,1,.093-.375.922.922,0,0,1,.269-.315,1.384,1.384,0,0,1,.435-.217,1.961,1.961,0,0,1,.588-.081,2.12,2.12,0,0,1,.691.106,1.7,1.7,0,0,1,.529.291Z" fill="#404040"/>
      <path id="Path_1224" data-name="Path 1224" d="M614.233,436.426v3.4h-.408a.173.173,0,0,1-.185-.125l-.053-.366a2.124,2.124,0,0,1-.57.395,1.677,1.677,0,0,1-.723.149,1.581,1.581,0,0,1-.564-.092,1.134,1.134,0,0,1-.41-.26,1.073,1.073,0,0,1-.248-.407,1.6,1.6,0,0,1-.082-.527v-2.169h.685V438.6a.833.833,0,0,0,.2.6.819.819,0,0,0,.618.212,1.3,1.3,0,0,0,.567-.126,1.773,1.773,0,0,0,.487-.348v-2.505Z" fill="#404040"/>
      <path id="Path_1225" data-name="Path 1225" d="M618.03,437.031a.319.319,0,0,1-.061.057.16.16,0,0,1-.085.02.25.25,0,0,1-.127-.042q-.069-.042-.171-.093a1.529,1.529,0,0,0-.25-.092,1.532,1.532,0,0,0-.871.047.96.96,0,0,0-.368.257,1.1,1.1,0,0,0-.223.406,1.774,1.774,0,0,0-.075.534,1.714,1.714,0,0,0,.081.549,1.124,1.124,0,0,0,.229.4.979.979,0,0,0,.357.249,1.24,1.24,0,0,0,.472.085,1.353,1.353,0,0,0,.411-.052,1.235,1.235,0,0,0,.268-.116c.07-.042.129-.081.177-.116a.241.241,0,0,1,.14-.052.159.159,0,0,1,.131.057l.193.219a1.311,1.311,0,0,1-.289.235,1.911,1.911,0,0,1-.348.163,2.166,2.166,0,0,1-.391.1,2.713,2.713,0,0,1-.415.031,1.935,1.935,0,0,1-.68-.118,1.554,1.554,0,0,1-.544-.341,1.574,1.574,0,0,1-.362-.549,2.14,2.14,0,0,1-.009-1.444,1.553,1.553,0,0,1,.354-.555,1.619,1.619,0,0,1,.573-.365,2.178,2.178,0,0,1,.783-.131,2.093,2.093,0,0,1,.725.116,1.78,1.78,0,0,1,.556.328Z" fill="#404040"/>
      <path id="Path_1226" data-name="Path 1226" d="M621.636,437.031a.353.353,0,0,1-.062.057.159.159,0,0,1-.085.02.25.25,0,0,1-.127-.042q-.069-.042-.171-.093a1.529,1.529,0,0,0-.25-.092,1.532,1.532,0,0,0-.871.047.959.959,0,0,0-.368.257,1.1,1.1,0,0,0-.223.406,1.776,1.776,0,0,0-.075.534,1.715,1.715,0,0,0,.081.549,1.124,1.124,0,0,0,.229.4.98.98,0,0,0,.357.249,1.241,1.241,0,0,0,.472.085,1.36,1.36,0,0,0,.412-.052,1.246,1.246,0,0,0,.267-.116c.07-.042.129-.081.177-.116a.241.241,0,0,1,.14-.052.159.159,0,0,1,.131.057l.193.219a1.31,1.31,0,0,1-.289.235,1.912,1.912,0,0,1-.348.163,2.167,2.167,0,0,1-.391.1,2.714,2.714,0,0,1-.415.031,1.925,1.925,0,0,1-.679-.118,1.523,1.523,0,0,1-.906-.89,2.132,2.132,0,0,1-.01-1.444,1.552,1.552,0,0,1,.354-.555,1.619,1.619,0,0,1,.573-.365,2.178,2.178,0,0,1,.783-.131,2.089,2.089,0,0,1,.725.116,1.78,1.78,0,0,1,.556.328Z" fill="#404040"/>
      <path id="Path_1227" data-name="Path 1227" d="M625.691,439.351a1.282,1.282,0,0,1-.3.233,2.045,2.045,0,0,1-.379.163,2.743,2.743,0,0,1-.417.1,2.963,2.963,0,0,1-.428.032,2.224,2.224,0,0,1-.744-.12,1.651,1.651,0,0,1-.589-.349,1.573,1.573,0,0,1-.386-.569,2.036,2.036,0,0,1-.139-.779,1.764,1.764,0,0,1,.125-.665,1.536,1.536,0,0,1,.36-.535,1.663,1.663,0,0,1,.573-.356,2.107,2.107,0,0,1,.762-.13,1.992,1.992,0,0,1,.648.1,1.507,1.507,0,0,1,.516.295,1.344,1.344,0,0,1,.34.477,1.612,1.612,0,0,1,.123.646.352.352,0,0,1-.034.189.155.155,0,0,1-.131.047h-2.6a1.775,1.775,0,0,0,.1.56,1.1,1.1,0,0,0,.252.4,1.039,1.039,0,0,0,.385.239,1.507,1.507,0,0,0,.5.079,1.66,1.66,0,0,0,.445-.053,2.279,2.279,0,0,0,.321-.112,2.331,2.331,0,0,0,.225-.113.332.332,0,0,1,.156-.052.16.16,0,0,1,.131.057Zm-.554-1.6a1.036,1.036,0,0,0-.068-.381.818.818,0,0,0-.2-.3.884.884,0,0,0-.313-.195,1.193,1.193,0,0,0-.42-.069,1.148,1.148,0,0,0-.779.25,1.112,1.112,0,0,0-.356.694Z" fill="#404040"/>
      <path id="Path_1228" data-name="Path 1228" d="M628.861,436.987a.156.156,0,0,1-.142.074.3.3,0,0,1-.131-.037c-.049-.025-.108-.052-.179-.082a1.614,1.614,0,0,0-.252-.084,1.352,1.352,0,0,0-.346-.039,1.158,1.158,0,0,0-.312.039.788.788,0,0,0-.236.105.482.482,0,0,0-.15.156.377.377,0,0,0-.052.194.3.3,0,0,0,.086.218.748.748,0,0,0,.229.151,2.1,2.1,0,0,0,.323.112q.182.049.372.1c.127.036.25.077.371.122a1.43,1.43,0,0,1,.323.168.8.8,0,0,1,.229.247.672.672,0,0,1,.086.351.982.982,0,0,1-.1.435.964.964,0,0,1-.284.345,1.428,1.428,0,0,1-.462.23,2.147,2.147,0,0,1-.631.084,2.209,2.209,0,0,1-.739-.116,1.923,1.923,0,0,1-.561-.3l.161-.228a.22.22,0,0,1,.073-.067.216.216,0,0,1,.108-.024.284.284,0,0,1,.146.047c.051.032.114.066.187.1a1.579,1.579,0,0,0,.267.105,1.412,1.412,0,0,0,.393.046,1.224,1.224,0,0,0,.35-.045.778.778,0,0,0,.25-.122.507.507,0,0,0,.148-.178.494.494,0,0,0,.048-.215.329.329,0,0,0-.087-.234.73.73,0,0,0-.229-.158,2.111,2.111,0,0,0-.325-.114c-.121-.032-.246-.066-.373-.1s-.251-.077-.373-.123a1.337,1.337,0,0,1-.325-.172.827.827,0,0,1-.229-.257.741.741,0,0,1-.087-.371.807.807,0,0,1,.093-.375.922.922,0,0,1,.269-.315,1.384,1.384,0,0,1,.435-.217,1.962,1.962,0,0,1,.588-.081,2.12,2.12,0,0,1,.691.106,1.7,1.7,0,0,1,.529.291Z" fill="#404040"/>
      <path id="Path_1229" data-name="Path 1229" d="M632.193,436.987a.156.156,0,0,1-.142.074.3.3,0,0,1-.131-.037c-.049-.025-.108-.052-.179-.082a1.651,1.651,0,0,0-.252-.084,1.357,1.357,0,0,0-.346-.039,1.148,1.148,0,0,0-.312.039.788.788,0,0,0-.236.105.482.482,0,0,0-.15.156.376.376,0,0,0-.052.194.3.3,0,0,0,.086.218.747.747,0,0,0,.229.151,2.1,2.1,0,0,0,.323.112q.181.049.372.1c.127.036.25.077.371.122a1.428,1.428,0,0,1,.323.168.793.793,0,0,1,.229.247.672.672,0,0,1,.086.351,1,1,0,0,1-.1.435.956.956,0,0,1-.285.345,1.412,1.412,0,0,1-.461.23,2.152,2.152,0,0,1-.631.084,2.209,2.209,0,0,1-.739-.116,1.941,1.941,0,0,1-.562-.3l.162-.228a.22.22,0,0,1,.073-.067.216.216,0,0,1,.108-.024.284.284,0,0,1,.146.047c.051.032.113.066.187.1a1.581,1.581,0,0,0,.267.105,1.412,1.412,0,0,0,.393.046,1.224,1.224,0,0,0,.35-.045.777.777,0,0,0,.25-.122.505.505,0,0,0,.148-.178.493.493,0,0,0,.048-.215.329.329,0,0,0-.087-.234.729.729,0,0,0-.229-.158,2.112,2.112,0,0,0-.325-.114c-.122-.032-.246-.066-.373-.1s-.251-.077-.373-.123a1.338,1.338,0,0,1-.325-.172.829.829,0,0,1-.229-.257.741.741,0,0,1-.087-.371.807.807,0,0,1,.093-.375.921.921,0,0,1,.269-.315,1.384,1.384,0,0,1,.435-.217,1.961,1.961,0,0,1,.588-.081,2.12,2.12,0,0,1,.691.106,1.7,1.7,0,0,1,.529.291Z" fill="#404040"/>
    </g>
    <g id="Group_284" data-name="Group 284">
      <g transform="matrix(1, 0, 0, 1, 517.99, 409)" filter="url(#Path_1230)">
        <path id="Path_1230-2" data-name="Path 1230" d="M530.085,409.5,519.495,441s3.323-2.824,5.69-3.364l4.443-.041.083-2.368-4.858-.041,5.232-14.66Z" transform="translate(-517.99 -409)" fill="url(#linear-gradient)"/>
      </g>
      <g transform="matrix(1, 0, 0, 1, 517.99, 409)" filter="url(#Path_1231)">
        <path id="Path_1231-2" data-name="Path 1231" d="M530.116,409.5l10.59,31.5s-3.322-2.824-5.689-3.364l-4.444-.041-.083-2.368,4.859-.041-5.233-14.66Z" transform="translate(-517.99 -409)" fill="url(#linear-gradient-2)"/>
      </g>
    </g>
  </g>
</svg>
