<svg xmlns="http://www.w3.org/2000/svg" width="130.145" height="31.192" viewBox="0 0 130.145 31.192">
  <g id="Group_227" data-name="Group 227" transform="translate(-77.438 -268.922)">
    <path id="Path_451" data-name="Path 451" d="M83.933,295.053a3.482,3.482,0,0,0-.406-1.85,1.362,1.362,0,0,0-1.237-.643,1.338,1.338,0,0,0-1.227.643,3.548,3.548,0,0,0-.4,1.85,3.506,3.506,0,0,0,.4,1.831,1.34,1.34,0,0,0,1.227.642,1.364,1.364,0,0,0,1.237-.642,3.442,3.442,0,0,0,.406-1.831m-6.495,0a6.746,6.746,0,0,1,.312-2.106,4.5,4.5,0,0,1,.925-1.633,4.091,4.091,0,0,1,1.52-1.047,5.545,5.545,0,0,1,2.1-.368,5.6,5.6,0,0,1,2.115.368,4.087,4.087,0,0,1,1.519,1.047,4.518,4.518,0,0,1,.926,1.633,6.776,6.776,0,0,1,.311,2.106,6.526,6.526,0,0,1-.311,2.067,4.416,4.416,0,0,1-.926,1.6,4.027,4.027,0,0,1-1.519,1.03,5.734,5.734,0,0,1-2.115.358,5.666,5.666,0,0,1-2.1-.358,4.031,4.031,0,0,1-1.52-1.03,4.4,4.4,0,0,1-.925-1.6A6.5,6.5,0,0,1,77.438,295.053Z" fill="#1d89c1"/>
    <path id="Path_452" data-name="Path 452" d="M97.356,299.433q-.321.112-.764.227t-.944.216q-.5.1-1.029.161a9.957,9.957,0,0,1-1.039.056,10.98,10.98,0,0,1-1.85-.151,3.828,3.828,0,0,1-1.557-.613,3.161,3.161,0,0,1-1.067-1.341,5.793,5.793,0,0,1-.4-2.35v-5.513a6.5,6.5,0,0,1,.822-.132q.405-.038.783-.038.358,0,.775.038a5.858,5.858,0,0,1,.811.132v5.249a2.349,2.349,0,0,0,.378,1.548,1.478,1.478,0,0,0,1.151.415,4.654,4.654,0,0,0,.491-.019,2.127,2.127,0,0,0,.246-.037v-7.156a6.51,6.51,0,0,1,.821-.132q.407-.038.784-.038.358,0,.774.038a5.848,5.848,0,0,1,.812.132v9.308Z" fill="#1d89c1"/>
    <path id="Path_453" data-name="Path 453" d="M101.642,292.788H98.847a4.432,4.432,0,0,1-.122-.709c-.019-.22-.029-.43-.029-.632s.01-.409.029-.623a4.556,4.556,0,0,1,.122-.7h8.779a4.565,4.565,0,0,1,.123.7q.028.321.028.623c0,.2-.009.412-.028.632a4.555,4.555,0,0,1-.123.709h-2.794v7.079q-.491.075-.887.114c-.264.025-.5.037-.718.037s-.453-.012-.717-.037-.554-.064-.868-.114Z" fill="#1d89c1"/>
    <path id="Path_454" data-name="Path 454" d="M113.819,293.769a6.285,6.285,0,0,1,1.029.368,2.7,2.7,0,0,1,.793.557,2.434,2.434,0,0,1,.519.831,3.317,3.317,0,0,1,.189,1.189,3.113,3.113,0,0,1-.293,1.34,2.972,2.972,0,0,1-.868,1.076,4.4,4.4,0,0,1-1.416.718,6.464,6.464,0,0,1-1.935.264,10.014,10.014,0,0,1-1.681-.132,9.219,9.219,0,0,1-1.642-.453,7.584,7.584,0,0,1,.7-2.605,5.9,5.9,0,0,0,1.265.424,6.256,6.256,0,0,0,1.322.142c.151,0,.308-.006.472-.019a1.694,1.694,0,0,0,.434-.086.87.87,0,0,0,.312-.179.413.413,0,0,0-.123-.67,3.473,3.473,0,0,0-.566-.216l-1.284-.359a3.656,3.656,0,0,1-1.662-.963,2.539,2.539,0,0,1-.66-1.85,2.918,2.918,0,0,1,1.151-2.37,3.971,3.971,0,0,1,1.293-.651,5.669,5.669,0,0,1,1.652-.227,9.056,9.056,0,0,1,1.567.151,11.21,11.21,0,0,1,1.68.435,5.757,5.757,0,0,1-.245,1.293,7.808,7.808,0,0,1-.472,1.218,8.322,8.322,0,0,0-1.227-.378,5.781,5.781,0,0,0-1.322-.17q-.887,0-.887.491a.351.351,0,0,0,.208.321,2.181,2.181,0,0,0,.472.188Z" fill="#1d89c1"/>
    <path id="Path_455" data-name="Path 455" d="M124.014,295.053a3.482,3.482,0,0,0-.406-1.85,1.362,1.362,0,0,0-1.237-.643,1.338,1.338,0,0,0-1.227.643,3.548,3.548,0,0,0-.4,1.85,3.506,3.506,0,0,0,.4,1.831,1.34,1.34,0,0,0,1.227.642,1.364,1.364,0,0,0,1.237-.642,3.442,3.442,0,0,0,.406-1.831m-6.5,0a6.776,6.776,0,0,1,.311-2.106,4.489,4.489,0,0,1,.926-1.633,4.079,4.079,0,0,1,1.519-1.047,6.2,6.2,0,0,1,4.21,0,4.091,4.091,0,0,1,1.52,1.047,4.5,4.5,0,0,1,.925,1.633,6.747,6.747,0,0,1,.311,2.106,6.5,6.5,0,0,1-.311,2.067,4.4,4.4,0,0,1-.925,1.6,4.031,4.031,0,0,1-1.52,1.03,6.367,6.367,0,0,1-4.21,0,4.019,4.019,0,0,1-1.519-1.03,4.4,4.4,0,0,1-.926-1.6A6.526,6.526,0,0,1,117.519,295.053Z" fill="#1d89c1"/>
    <path id="Path_456" data-name="Path 456" d="M137.437,299.433c-.215.075-.469.151-.765.227s-.61.147-.944.216-.676.123-1.029.161a9.924,9.924,0,0,1-1.038.056,10.972,10.972,0,0,1-1.85-.151,3.832,3.832,0,0,1-1.558-.613,3.159,3.159,0,0,1-1.066-1.341,5.776,5.776,0,0,1-.4-2.35v-5.513a6.51,6.51,0,0,1,.821-.132q.407-.038.784-.038.358,0,.774.038a5.848,5.848,0,0,1,.812.132v5.249a2.35,2.35,0,0,0,.377,1.548,1.482,1.482,0,0,0,1.152.415,4.654,4.654,0,0,0,.491-.019,2.1,2.1,0,0,0,.245-.037v-7.156a6.5,6.5,0,0,1,.822-.132c.27-.025.532-.038.783-.038s.5.013.775.038a5.858,5.858,0,0,1,.811.132v9.308Z" fill="#1d89c1"/>
    <path id="Path_457" data-name="Path 457" d="M139.551,290.163q.887-.114,1.841-.189t1.8-.076a5.669,5.669,0,0,1,3.427.86,2.84,2.84,0,0,1,1.142,2.407,3.52,3.52,0,0,1-.132,1.019,3.26,3.26,0,0,1-.321.745,2.211,2.211,0,0,1-.4.5q-.208.189-.34.3l2.152,4.116a7.614,7.614,0,0,1-.84.113q-.462.037-.9.038c-.352,0-.691-.013-1.019-.038a5.606,5.606,0,0,1-.811-.113l-2.1-4.456.264-.151a2.379,2.379,0,0,0,.907-.8,1.809,1.809,0,0,0,.245-.916,1.119,1.119,0,0,0-.293-.8,1.228,1.228,0,0,0-.934-.312,2.992,2.992,0,0,0-.548.038v7.419a7.639,7.639,0,0,1-.887.123c-.264.019-.5.029-.7.029s-.447-.01-.7-.029a7.743,7.743,0,0,1-.869-.123v-9.7Z" fill="#1d89c1"/>
    <path id="Path_458" data-name="Path 458" d="M149.067,295.015a6.4,6.4,0,0,1,.321-2.077,4.437,4.437,0,0,1,.943-1.614,4.341,4.341,0,0,1,1.53-1.048,5.373,5.373,0,0,1,2.077-.377q.4,0,.755.019a6.626,6.626,0,0,1,.708.075,5.3,5.3,0,0,1,.717.171q.368.113.822.283a4.354,4.354,0,0,1-.114,1.274,5.222,5.222,0,0,1-.472,1.237c-.214-.076-.406-.135-.575-.179s-.331-.079-.481-.1a3.9,3.9,0,0,0-.444-.047c-.146-.007-.3-.01-.463-.01a2.155,2.155,0,0,0-1.5.538,2.422,2.422,0,0,0-.6,1.86,3.224,3.224,0,0,0,.18,1.161,1.857,1.857,0,0,0,.471.727,1.72,1.72,0,0,0,.68.378,2.893,2.893,0,0,0,.821.113,4.246,4.246,0,0,0,.954-.094,7.734,7.734,0,0,0,.953-.3,4.585,4.585,0,0,1,.51,1.142,5.053,5.053,0,0,1,.189,1.444,6.9,6.9,0,0,1-1.586.435,11.164,11.164,0,0,1-1.435.094,5.872,5.872,0,0,1-2.133-.358,4.2,4.2,0,0,1-1.558-1.03,4.354,4.354,0,0,1-.953-1.6,6.452,6.452,0,0,1-.321-2.107" fill="#1d89c1"/>
    <path id="Path_459" data-name="Path 459" d="M162.4,292.3a1.528,1.528,0,0,0-1.038.378,1.693,1.693,0,0,0-.51,1.171h3.021a1.847,1.847,0,0,0-.406-1.105,1.311,1.311,0,0,0-1.067-.444m-1.51,3.72a1.737,1.737,0,0,0,.727,1.094,2.566,2.566,0,0,0,1.369.322,6.577,6.577,0,0,0,1.227-.132,7.592,7.592,0,0,0,1.34-.4,6.018,6.018,0,0,1,.462,1.17,5.479,5.479,0,0,1,.217,1.416,9.815,9.815,0,0,1-3.436.623,6.433,6.433,0,0,1-2.331-.378,4.131,4.131,0,0,1-1.586-1.047,4.207,4.207,0,0,1-.906-1.6,7.007,7.007,0,0,1,.009-4.04,4.637,4.637,0,0,1,.906-1.643,4.282,4.282,0,0,1,1.51-1.1,5.132,5.132,0,0,1,2.115-.407,4.438,4.438,0,0,1,1.784.34,3.885,3.885,0,0,1,1.331.934,4.073,4.073,0,0,1,.84,1.435,5.512,5.512,0,0,1,.293,1.822,8.094,8.094,0,0,1-.048.916c-.031.27-.059.494-.084.67Z" fill="#1d89c1"/>
    <path id="Path_460" data-name="Path 460" d="M168.95,286.349q.416-.075.756-.113a6.025,6.025,0,0,1,.661-.038,5.464,5.464,0,0,1,.707.048c.246.031.456.066.633.1l4.38,7.4v-7.4q.49-.075.887-.113t.717-.038a6.561,6.561,0,0,1,.68.038q.358.037.755.113l-.018,13.48a4.444,4.444,0,0,1-.548.114,5.391,5.391,0,0,1-1.623-.009c-.253-.045-.435-.079-.548-.1l-4.4-7.363v7.362a7.55,7.55,0,0,1-1.51.171,7.841,7.841,0,0,1-1.53-.171Z" fill="#3a3a3c"/>
    <path id="Path_461" data-name="Path 461" d="M185.017,297.3h3.606a8.047,8.047,0,0,1,.132,1.321q0,.283-.028.576c-.019.2-.054.424-.1.689h-7.929l-.3-.566,3.946-6.609h-3.229a5.651,5.651,0,0,1-.123-.726c-.019-.208-.028-.407-.028-.595s.009-.381.028-.576a5.24,5.24,0,0,1,.123-.689h7.684l.189.605Z" fill="#3a3a3c"/>
    <rect id="Rectangle_134" data-name="Rectangle 134" width="3.327" height="3.327" transform="translate(185.292 269.921)" fill="#1d89c1"/>
    <rect id="Rectangle_135" data-name="Rectangle 135" width="3.327" height="3.327" transform="translate(204.256 280.234)" fill="#1d89c1"/>
    <rect id="Rectangle_136" data-name="Rectangle 136" width="3.327" height="3.327" transform="translate(195.273 284.892)" fill="#1d89c1"/>
    <rect id="Rectangle_137" data-name="Rectangle 137" width="3.992" height="3.992" transform="translate(189.95 273.247)" fill="#1d89c1"/>
    <rect id="Rectangle_138" data-name="Rectangle 138" width="3.992" height="3.992" transform="translate(189.617 288.219)" fill="#1d89c1"/>
    <rect id="Rectangle_139" data-name="Rectangle 139" width="7.985" height="7.652" transform="translate(194.608 276.242)" fill="#1d89c1"/>
    <rect id="Rectangle_140" data-name="Rectangle 140" width="5.323" height="5.323" transform="translate(186.956 278.238)" fill="#1d89c1"/>
    <rect id="Rectangle_141" data-name="Rectangle 141" width="3.327" height="3.327" transform="translate(185.292 285.89)" fill="#1d89c1"/>
    <rect id="Rectangle_142" data-name="Rectangle 142" width="1.663" height="1.663" transform="translate(192.279 284.891)" fill="#1d89c1"/>
    <rect id="Rectangle_143" data-name="Rectangle 143" width="6.321" height="6.321" transform="translate(199.598 285.89)" fill="#1d89c1"/>
    <rect id="Rectangle_144" data-name="Rectangle 144" width="2.994" height="2.662" transform="translate(194.608 289.882)" fill="#1d89c1"/>
    <rect id="Rectangle_145" data-name="Rectangle 145" width="5.656" height="5.656" transform="translate(194.941 268.922)" fill="#1d89c1"/>
    <rect id="Rectangle_146" data-name="Rectangle 146" width="3.327" height="3.327" transform="translate(201.262 271.584)" fill="#1d89c1"/>
  </g>
</svg>
