<svg width="175" height="148" viewBox="0 0 175 148" fill="none" xmlns="http://www.w3.org/2000/svg">
<path d="M17.9729 147.661C20.6445 147.661 22.3868 145.816 22.3868 143.363C22.3868 140.924 20.6445 139.053 17.9729 139.053H15.0304V147.661H17.9729ZM17.9729 146.706H16.1016V140.008H17.9729C20.1024 140.008 21.2769 141.505 21.2769 143.363C21.2769 145.209 20.0637 146.706 17.9729 146.706Z" fill="#404040"/>
<path d="M25.1382 147.661V139.053H24.0671V147.661H25.1382Z" fill="#404040"/>
<path d="M34.279 147.661V139.053H33.2078V145.777L28.2519 139.053H27.1549V147.661H28.2261V140.795L33.2465 147.661H34.279Z" fill="#404040"/>
<path d="M37.3636 147.661V139.053H36.2924V147.661H37.3636Z" fill="#404040"/>
<path d="M46.5043 147.661V139.053H45.4331V145.777L40.4772 139.053H39.3802V147.661H40.4514V140.795L45.4718 147.661H46.5043Z" fill="#404040"/>
<path d="M52.596 147.829C54.0027 147.829 55.1772 147.235 55.9773 146.345V143.234H51.9507V144.189H54.9061V145.945C54.4802 146.371 53.6284 146.874 52.596 146.874C50.7117 146.874 49.2792 145.403 49.2792 143.363C49.2792 141.311 50.7117 139.866 52.596 139.866C53.6284 139.866 54.5448 140.356 55.0868 141.053L55.9386 140.524C55.1772 139.582 54.1189 138.911 52.596 138.911C50.1438 138.911 48.1692 140.692 48.1692 143.363C48.1692 146.035 50.1438 147.829 52.596 147.829Z" fill="#404040"/>
<path d="M64.9689 147.816C67.5114 147.816 69.2408 145.906 69.2408 143.363C69.2408 140.821 67.5114 138.911 64.9689 138.911C62.4135 138.911 60.697 140.821 60.697 143.363C60.697 145.906 62.4135 147.816 64.9689 147.816ZM64.9689 146.861C63.033 146.861 61.807 145.364 61.807 143.363C61.807 141.35 63.033 139.866 64.9689 139.866C66.8919 139.866 68.1309 141.35 68.1309 143.363C68.1309 145.364 66.8919 146.861 64.9689 146.861Z" fill="#404040"/>
<path d="M74.4244 147.816C76.7604 147.816 77.9348 146.448 77.9348 144.306V139.053H76.8636V144.293C76.8636 145.867 76.0118 146.861 74.4244 146.861C72.837 146.861 71.9852 145.867 71.9852 144.293V139.053H70.914V144.318C70.914 146.435 72.0884 147.816 74.4244 147.816Z" fill="#404040"/>
<path d="M83.1513 147.661V140.008H85.8874V139.053H79.357V140.008H82.0801V147.661H83.1513Z" fill="#404040"/>
<path d="M99.0659 147.661V139.053H97.5301L94.8457 145.532L92.1742 139.053H90.6384V147.661H91.7096V140.576L94.6263 147.661H95.0651L97.9947 140.576V147.661H99.0659Z" fill="#404040"/>
<path d="M108.443 147.661L104.972 139.053H103.642L100.183 147.661H101.41L102.171 145.751H106.456L107.217 147.661H108.443ZM106.133 144.796H102.481L104.313 140.163L106.133 144.796Z" fill="#404040"/>
<path d="M112.511 147.661C115.183 147.661 116.925 145.816 116.925 143.363C116.925 140.924 115.183 139.053 112.511 139.053H109.569V147.661H112.511ZM112.511 146.706H110.64V140.008H112.511C114.641 140.008 115.815 141.505 115.815 143.363C115.815 145.209 114.602 146.706 112.511 146.706Z" fill="#404040"/>
<path d="M124.245 147.661V146.706H119.677V143.738H124.155V142.783H119.677V140.008H124.245V139.053H118.605V147.661H124.245Z" fill="#404040"/>
<path d="M134.92 147.661V146.706H130.352V143.738H134.83V142.783H130.352V140.008H134.92V139.053H129.28V147.661H134.92Z" fill="#404040"/>
<path d="M143.998 147.661L140.526 139.053H139.197L135.738 147.661H136.964L137.725 145.751H142.01L142.771 147.661H143.998ZM141.687 144.796H138.035L139.868 140.163L141.687 144.796Z" fill="#404040"/>
<path d="M147.734 147.816C150.057 147.816 150.909 146.538 150.909 145.286C150.909 142.073 145.811 143.183 145.811 141.247C145.811 140.434 146.547 139.879 147.579 139.879C148.521 139.879 149.425 140.201 150.07 140.911L150.715 140.124C149.993 139.363 148.973 138.924 147.657 138.924C145.966 138.924 144.701 139.892 144.701 141.311C144.701 144.383 149.799 143.157 149.799 145.377C149.799 146.035 149.309 146.861 147.773 146.861C146.56 146.861 145.631 146.267 145.063 145.635L144.43 146.448C145.14 147.248 146.237 147.816 147.734 147.816Z" fill="#404040"/>
<path d="M155.957 147.661V144.022L159.339 139.053H158.087L155.415 143.054L152.744 139.053H151.492L154.886 144.022V147.661H155.957Z" fill="#404040"/>
<path d="M8.88134 95.5251C14.8803 93.3455 21.4418 93.1474 27.8157 94.3362C30.6277 94.9307 33.2523 95.9214 35.3145 97.9029C37.5641 100.083 39.2513 103.253 39.4388 106.423C39.6262 110.386 38.314 114.151 36.4393 117.52C33.6272 122.473 29.5029 126.436 24.6287 129.408C21.6292 131.192 18.4423 132.381 15.0678 132.381C13.7555 132.381 12.2558 132.182 11.131 131.588C10.0062 130.795 9.44375 129.408 9.25628 128.021C8.69387 125.247 9.06881 122.473 9.44375 119.897C10.1936 115.34 11.5059 110.981 13.0057 106.82C13.3806 105.631 13.943 104.244 15.0678 103.451C16.3801 102.658 17.8798 102.46 19.3796 102.658C20.8794 102.658 22.3791 103.253 23.6914 103.847C22.1916 106.423 20.8794 108.999 19.5671 111.773C17.6924 116.132 16.0052 120.888 14.8803 125.644C14.6929 126.832 14.5054 128.021 14.5054 129.21C17.5049 128.616 20.5044 127.031 22.9415 125.049C26.6909 121.879 29.5029 117.52 31.0027 112.764C31.5651 110.783 32.1275 108.603 31.7526 106.621C31.5651 105.036 30.8152 103.253 29.5029 102.262C26.1285 99.8844 21.6292 100.083 17.8798 101.073C13.943 101.866 10.3811 104.244 7.944 107.414C6.63171 108.999 5.88184 110.981 5.13196 112.962C2.5074 111.179 0.445239 108.207 0.0703011 104.838C-0.117168 103.847 0.0702996 102.658 0.632706 101.866C2.5074 98.4973 5.69437 96.714 8.88134 95.5251Z" fill="#404040"/>
<path d="M115.926 96.9122C117.426 95.5251 119.301 94.5344 121.363 94.3362C123.612 93.9399 126.049 94.1381 128.112 95.327C130.361 96.5159 132.236 98.8936 133.173 101.47C135.048 106.621 134.86 112.368 133.548 117.718C132.611 121.482 130.736 125.049 128.112 127.823C125.862 130.201 122.862 131.786 119.676 131.984C115.739 132.381 111.802 129.805 110.49 125.842C109.74 122.87 110.302 119.303 112.364 116.727C113.114 115.736 114.239 115.736 115.364 115.736C114.614 117.916 113.302 119.699 113.114 122.077C113.114 123.266 113.114 124.653 114.051 125.644C114.614 126.436 115.551 126.832 116.489 126.634C118.176 126.238 119.676 125.049 120.8 123.86C124.175 120.095 126.612 115.34 127.924 110.386C128.487 107.612 128.861 104.838 128.674 102.064C128.487 100.875 128.299 99.4881 127.549 98.6955C126.987 97.9029 125.862 97.5066 124.925 97.7047C123.05 98.101 121.738 99.4881 120.613 100.875C118.926 103.055 117.613 105.433 116.863 108.207C116.489 109.594 116.301 111.179 117.051 112.368C118.176 113.755 120.05 114.151 121.363 115.142C119.113 115.934 116.489 116.132 114.239 114.944C112.177 113.953 110.677 111.971 110.302 109.792C109.927 107.81 110.302 105.829 111.239 103.847C111.989 101.073 113.864 98.8936 115.926 96.9122Z" fill="#404040"/>
<path d="M167.293 96.1196C169.542 95.5251 171.979 96.1196 174.042 97.1103C172.917 99.4881 171.792 101.866 171.042 104.244C171.792 104.244 172.729 104.244 173.479 104.244C173.104 105.234 172.917 106.027 172.542 107.018C171.604 107.018 170.855 107.018 169.917 107.018C168.417 111.179 166.918 115.142 165.98 119.501C165.605 120.888 165.418 122.473 165.605 124.058C166.543 123.86 167.293 123.464 168.043 122.87C170.292 120.69 171.604 117.52 173.479 114.944C173.479 118.114 171.792 121.086 169.917 123.464C168.605 125.049 167.293 126.436 165.418 127.031C163.918 127.625 162.231 127.229 161.106 125.842C160.169 124.653 159.981 122.87 159.794 121.284C158.857 123.068 157.544 124.653 156.044 126.04C155.107 126.634 154.17 127.229 153.045 127.427C151.545 127.625 149.858 126.832 149.108 125.445C147.983 123.464 147.983 121.284 148.171 119.105C147.421 121.086 146.296 123.068 144.984 124.851C144.234 125.842 143.484 126.634 142.359 127.229C140.672 128.021 138.422 127.229 137.485 125.445C136.735 124.058 136.548 122.473 136.548 121.086C136.548 119.105 136.548 116.925 136.923 114.944C137.485 112.566 138.235 110.188 138.985 107.81C139.36 107.018 139.735 106.027 140.297 105.234C141.047 104.64 141.984 104.442 142.922 104.244C144.796 104.045 146.671 104.64 148.171 105.631C146.296 108.999 144.984 112.764 143.859 116.529C143.109 118.907 142.359 121.482 142.734 123.86C144.046 123.266 144.984 122.275 145.546 121.086C147.796 116.727 149.671 112.17 151.358 107.414C151.733 106.225 152.483 105.234 153.607 105.036C155.857 104.244 158.294 105.036 160.356 106.027C160.544 105.433 160.731 104.838 161.106 104.045C161.669 104.045 162.418 104.045 162.981 103.847C163.731 101.866 164.293 99.6862 165.23 97.7047C165.605 97.3084 166.355 96.3177 167.293 96.1196ZM159.981 107.018C158.107 110.386 156.607 114.151 155.482 117.718C154.732 119.699 154.17 121.879 154.357 124.058C156.607 123.662 158.107 121.284 159.231 119.501C159.981 118.114 160.169 116.529 160.356 115.142C160.731 112.566 161.481 109.99 162.231 107.414C161.481 107.216 160.731 107.018 159.981 107.018Z" fill="#404040"/>
<path d="M49.3747 96.5159C50.687 96.3178 51.9993 96.714 53.1241 97.1103C53.6865 97.5066 54.4364 98.1011 54.2489 98.8937C54.0614 100.281 53.874 101.866 52.5617 102.658C51.2494 103.451 49.7496 103.253 48.2499 103.055C47.3125 102.857 46.0003 102.46 45.8128 101.271C45.6253 99.0918 47.1251 96.5159 49.3747 96.5159Z" fill="#404040"/>
<path d="M81.2443 105.829C83.119 104.244 85.5561 103.649 87.9932 104.244C89.8679 104.64 91.5551 106.225 92.1175 108.207C92.8674 110.584 92.1175 112.962 90.6178 114.944C88.9306 117.123 85.9311 117.52 83.494 116.529C83.3065 118.312 83.119 120.294 83.494 122.275C83.8689 123.464 84.9937 124.257 86.306 124.257C87.9932 124.257 89.493 123.266 90.6178 121.879C92.305 119.897 93.2424 117.123 94.9296 114.944C94.7421 118.312 93.2424 121.482 91.1802 123.86C88.3682 127.031 83.494 127.823 79.7446 126.04C77.8699 125.049 76.9325 122.671 76.3701 120.492C75.2453 122.671 73.9331 124.653 72.0584 126.04C71.121 126.832 69.9962 127.427 68.6839 127.427C67.3716 127.427 66.2468 126.832 65.3095 125.842C64.5596 124.851 64.1847 123.266 64.1847 122.077C63.9972 118.907 64.5596 115.934 65.4969 112.962C63.0599 116.529 60.9977 120.492 58.9355 124.257C58.3731 125.247 57.9982 126.436 57.2483 127.427C55.7486 128.22 53.6864 127.427 52.9365 125.842C52.1866 124.257 51.8117 122.671 51.6242 120.888C50.312 123.266 48.6247 125.644 46.3751 126.832C44.6879 127.823 42.2508 127.625 40.9385 126.04C40.0012 124.851 39.6262 123.068 39.6262 121.284C39.6262 116.727 40.9385 112.566 42.4383 108.405C43.0007 107.018 43.3756 105.433 44.8754 104.838C47.125 103.847 49.7495 104.64 51.8117 105.829C49.5621 109.99 47.6874 114.547 46.3751 119.105C46.0002 120.69 45.6252 122.275 45.8127 124.058C47.125 123.86 48.2498 123.068 48.9997 121.879C50.1245 120.294 51.4368 118.708 51.6242 116.727C51.9992 113.755 52.9365 110.783 53.8739 107.81C54.2488 106.621 54.9987 105.234 56.311 105.036C58.5606 104.442 60.9977 105.036 63.0598 106.225C60.4353 110.783 58.1857 115.736 57.4358 121.086C60.0603 116.331 62.4974 111.575 66.0593 107.612C67.1842 106.423 68.4965 105.234 69.9962 104.64C71.8709 103.847 74.1205 105.234 74.6829 107.018C75.0579 108.008 74.4955 108.999 74.1205 109.99C72.8082 112.962 71.6834 116.132 70.7461 119.303C70.3711 120.888 69.9962 122.473 70.1837 124.058C71.3085 123.662 72.4333 123.068 73.1832 122.077C73.9331 121.086 74.6829 119.897 75.4328 118.708C75.9952 117.52 75.9952 116.331 76.1827 115.142C76.9326 111.575 78.6198 108.008 81.2443 105.829ZM86.306 110.188C85.1812 111.377 84.6188 112.962 84.0564 114.547C85.3687 114.547 86.8684 114.349 87.9932 113.557C89.118 112.764 89.493 111.179 89.118 109.792C88.9306 109.395 88.7431 108.999 88.3682 108.801C87.4308 108.999 86.8684 109.594 86.306 110.188Z" fill="#404040"/>
<path d="M63.6223 0.414163C64.9346 0.0178675 66.4343 -0.180281 67.7466 0.216015C68.4965 0.414162 68.8714 1.00861 68.8714 1.8012C69.0589 2.79194 68.684 3.78268 68.309 4.77342C70.5586 3.38638 72.9957 2.39564 75.8078 1.99935C72.9957 2.79194 71.496 3.38638 69.6213 4.57527C67.7466 5.56601 66.8093 6.95304 65.3095 8.14193C66.6218 5.76415 68.1216 4.57527 68.1216 2.19749C68.1216 1.20675 67.3717 1.00861 66.6218 0.81046C64.3722 0.612313 62.31 1.4049 60.2478 2.39564C54.4363 5.76416 50.1245 9.92526 47.3125 15.6715C46.1877 18.0493 45.6253 20.4271 45.0629 23.003C45.4378 19.4364 46.5626 16.0678 48.2498 13.0956C49.5621 10.7179 51.2493 8.53823 53.124 6.7549C56.4985 3.98083 59.6854 1.60305 63.6223 0.414163Z" fill="#38195C"/>
<path d="M50.312 15.2752C52.7491 11.5104 56.1235 8.14192 60.0604 6.75488C57.2483 8.53821 55.936 9.52895 54.0614 11.3123C50.312 14.6808 48.2498 19.4363 47.3125 24.39C46.7501 27.1641 46.7501 30.1363 46.3751 32.9104C45.6253 31.5234 44.8754 29.9382 43.7506 28.7493C43.1882 27.9567 42.0633 27.1641 41.3135 27.1641C40.3761 27.1641 39.8137 28.1548 39.4388 28.9474C38.6889 30.7308 38.5014 34.0993 38.6889 36.6752C39.0638 41.2326 40.3761 45.9881 42.6258 49.753C43.5631 51.3381 44.6879 52.527 45.8127 53.9141C42.6258 51.14 40.5636 47.3752 39.4388 43.2141C38.5014 39.8456 37.939 36.2789 38.1265 32.9104C38.314 31.3252 38.5014 29.5419 39.2513 28.1548C39.6263 27.5604 40.1887 26.7678 40.9385 26.7678C41.8759 26.5697 42.6257 27.1641 43.3756 27.7586C44.5004 28.7493 45.2503 30.1363 46.0002 31.5234C46.3751 25.7771 47.4999 20.0308 50.312 15.2752Z" fill="#38195C"/>
<path d="M137.86 31.1271C137.485 28.1549 137.298 26.5697 135.985 23.2012C135.235 21.0215 134.486 19.8326 132.986 17.0586C132.048 15.4734 130.361 13.0956 129.049 11.7086C126.237 8.73636 123.987 6.95303 120.425 4.97155C117.988 3.58452 115.176 2.79193 112.552 1.99934C106.928 0.216007 101.116 -0.378439 95.3045 0.414153C91.5551 1.0086 89.118 1.60304 85.7436 2.99008C83.4939 3.98082 81.2443 4.57526 78.2448 6.16044C75.0578 7.94377 72.6207 9.33081 68.8714 12.5012C65.8719 14.8789 63.0598 17.653 60.2478 20.4271C58.3731 22.4086 56.8734 24.7863 55.3736 26.966C53.4989 29.74 51.8117 32.5141 50.8743 35.6845C50.3119 37.6659 49.7495 38.6567 49.3746 40.2419C48.6247 43.4122 48.0623 45.5919 47.6874 50.1493C48.4373 45.9882 49.7495 42.0252 51.8117 38.4585C55.936 31.5234 62.1225 26.1734 69.2463 22.8049C73.3706 20.8234 77.8699 19.6345 82.3691 19.04C84.0564 18.8419 85.5561 18.8419 87.2433 18.6438C86.306 16.4641 84.9937 14.4826 83.494 12.5012C84.2438 11.9067 84.9937 10.916 86.1185 10.916C87.6183 10.7178 89.118 10.7178 90.6178 10.916C91.7426 10.916 92.305 11.9067 93.0549 12.6993C91.5551 14.4827 90.2428 16.6623 89.3055 18.8419C93.9922 19.0401 98.6789 20.0308 103.366 21.2197C105.803 22.4086 108.427 23.3993 110.677 24.7863C115.739 27.7586 120.425 31.9197 123.612 36.8734C125.112 39.2511 126.237 41.827 127.549 44.403C128.299 47.3752 128.861 50.5456 128.861 53.7159C130.549 53.7159 132.236 53.9141 133.736 53.5178C134.86 52.7252 135.048 51.7344 135.423 50.5456C135.798 49.5548 136.173 48.1678 136.36 47.177C136.923 44.6011 137.298 42.6196 137.485 39.053C138.235 36.2789 138.235 33.703 137.86 31.1271Z" fill="#3AD5FF"/>
<path d="M35.8768 45.5919C37.7515 47.9696 38.5014 48.9604 40.0012 50.5456C41.8758 52.3289 43.1881 53.3196 45.0628 54.5085C43.3756 53.7159 41.8758 52.9233 40.5636 51.7344C38.5014 49.9511 36.8142 48.1678 35.8768 45.5919Z" fill="#38195C"/>
<path d="M87.0559 13.2938C88.7431 13.0956 90.4303 12.8975 92.1176 13.4919C90.4303 13.6901 88.7431 13.6901 87.0559 13.2938Z" fill="#A55EBE"/>
<path d="M111.427 28.7493C112.552 29.9382 113.489 31.1271 114.239 32.7123C114.989 34.2975 115.176 36.2789 115.364 38.0623H115.176C114.989 36.6752 114.801 35.0901 114.239 33.703C113.489 31.9197 112.364 30.3345 111.427 28.7493Z" fill="#A55EBE"/>
<path d="M90.8053 30.7308C92.4925 32.316 93.4299 34.4956 94.9296 36.0808C98.3041 39.8456 102.991 42.0252 107.865 42.4215C107.865 42.6196 107.865 42.8178 107.865 42.8178C104.678 42.6196 101.491 41.8271 98.679 40.2419C95.3045 38.0622 91.5552 35.09 90.8053 30.7308Z" fill="#A55EBE"/>
<path d="M89.3055 34.2975C90.8053 35.6845 92.1176 37.666 93.8048 39.053C95.867 40.8364 98.3041 42.0252 100.741 43.2141C99.0539 42.6197 97.3667 42.0252 95.867 41.0345C93.2424 39.4493 90.6178 37.4678 89.3055 34.2975Z" fill="#A55EBE"/>
<path d="M88.3682 38.6567C90.8053 40.2419 93.0549 42.0252 95.6795 43.4122C92.8674 42.4215 90.2429 40.8363 88.3682 38.6567Z" fill="#A55EBE"/>
<path d="M99.4288 25.3808C99.9912 24.3901 101.303 24.7864 102.241 24.9845C105.24 25.9752 108.052 27.9567 110.115 30.3345C111.614 32.1178 112.739 34.4956 112.739 37.0715C112.739 38.4586 111.802 40.0437 110.489 40.6382C108.052 41.8271 104.865 41.4308 102.616 40.0437C99.6163 38.4586 96.9917 36.0808 94.9295 33.3067C93.9922 31.9197 93.2423 30.1363 93.2423 28.353C93.2423 27.1641 94.3671 26.1734 95.4919 25.9752C99.4288 25.7771 103.178 27.1641 106.553 29.3438C108.615 30.7308 110.302 32.7123 111.802 34.6937C111.052 33.1086 110.115 31.7215 108.99 30.5326C106.365 27.7586 102.991 26.1734 99.4288 25.3808Z" fill="white"/>
<path d="M127.924 44.6011C126.987 41.827 125.674 39.4493 123.987 37.0715C120.613 31.9197 116.114 27.9567 111.052 24.9845C108.615 23.5974 106.178 22.4086 103.741 21.4178C99.2414 19.6345 94.5547 19.2382 89.6805 19.04C90.6178 16.8604 91.9301 14.8789 93.4298 12.8975C92.68 12.303 91.9301 11.3123 90.9927 11.1141C89.493 10.916 87.9932 10.916 86.4935 11.1141C85.3687 11.1141 84.6188 12.1049 83.8689 12.6993C85.3687 14.6808 86.681 16.6623 87.6183 18.8419C85.9311 19.04 84.4313 19.04 82.7441 19.2382C78.2449 19.8326 73.7456 21.2197 69.6213 23.003C62.4975 26.1734 56.1235 31.5234 52.1867 38.6567C50.1245 42.2233 48.9997 46.3844 48.0623 50.3474C47.8749 51.5363 47.8749 52.527 47.8749 53.7159C75.0579 53.7159 102.428 53.7159 129.611 53.7159C129.049 50.7437 128.861 47.5733 127.924 44.6011ZM87.0559 13.2938C88.7431 13.0956 90.4303 12.8975 92.1176 13.4919C90.4303 13.69 88.7431 13.69 87.0559 13.2938ZM88.3682 38.6567C90.8053 40.2419 93.0549 42.0252 95.6795 43.4122C92.8674 42.4215 90.2429 40.8363 88.3682 38.6567ZM95.8669 41.2326C93.2424 39.6474 90.6178 37.4678 89.3055 34.4956C90.8053 35.8826 92.1176 37.8641 93.8048 39.2511C95.8669 41.0345 98.304 42.2233 100.741 43.4122C99.0539 42.6196 97.3667 42.0252 95.8669 41.2326ZM107.865 42.8178C104.678 42.6196 101.491 41.827 98.679 40.2419C95.1171 38.0622 91.5552 35.09 90.8053 30.7308C92.4925 32.3159 93.4298 34.4956 94.9296 36.0808C98.304 39.8456 102.991 42.0252 107.865 42.4215V42.8178ZM112.739 37.2696C112.739 38.6567 111.802 40.2419 110.49 40.8363C108.052 42.0252 104.865 41.6289 102.616 40.2419C99.6163 38.6567 96.9917 36.2789 94.9296 33.5048C93.9922 32.1178 93.2424 30.3345 93.2424 28.5511C93.2424 27.3622 94.3672 26.3715 95.492 26.1734C99.4289 25.9752 103.178 27.3622 106.553 29.5419C108.615 30.9289 110.302 32.9104 111.802 34.8919C111.052 33.3067 110.115 31.9197 108.99 30.7308C106.365 27.9567 102.991 26.3715 99.4288 25.5789C99.9913 24.5882 101.304 24.9845 102.241 25.1826C105.24 26.1734 108.052 28.1548 110.115 30.5326C111.802 32.3159 112.927 34.6937 112.739 37.2696ZM115.176 37.8641C114.989 36.477 114.801 34.8919 114.239 33.5048C113.489 31.7215 112.364 30.3345 111.427 28.7493C112.552 29.9382 113.489 31.1271 114.239 32.7122C114.989 34.2974 115.176 36.0808 115.176 37.8641Z" fill="#FFD02E"/>
<path d="M137.673 55.103C95.6795 55.103 89.3055 55.103 44.8754 55.103C44.6879 55.4993 44.313 56.2919 44.1255 56.6881C47.6874 56.6881 51.2493 57.2826 54.6238 58.4715C56.311 59.0659 57.6233 60.453 59.4979 60.6511H120.613C128.112 60.6511 139.172 55.103 137.673 55.103Z" fill="#38195C"/>
<path d="M73.1831 85.2214C74.8704 85.4196 84.8062 85.2214 86.4934 86.014C87.0558 86.2122 87.4308 87.0048 87.2433 87.7974C86.6809 90.5714 86.1185 91.9585 85.1812 95.7233C82.5566 90.7696 78.6197 88.3918 73.1831 86.8066C72.4333 86.6085 72.4333 85.2214 73.1831 85.2214Z" fill="#BCE501"/>
<path d="M111.989 60.6511C109.74 62.2363 107.303 63.8215 105.053 65.6048C104.116 66.3974 103.178 67.19 101.866 67.3881C99.4288 67.9826 97.1792 68.9733 94.5546 69.1714C91.7426 69.3696 88.9306 70.3603 85.9311 69.5677C89.118 69.7659 92.1175 68.9733 95.117 68.577C97.3667 68.3789 99.4288 67.3881 101.491 66.5955C103.366 66.0011 104.678 64.614 106.178 63.4252C107.49 62.4344 108.99 61.0474 110.489 60.6511C110.489 60.6511 107.865 60.6511 106.365 60.6511C104.865 62.0381 103.553 63.8215 101.678 64.8122C100.366 65.6048 99.0539 66.1992 97.7416 66.9918C98.8664 66.1992 99.8038 65.2085 100.554 64.0196C101.304 62.8307 102.053 61.4437 102.991 60.6511C100.929 60.6511 100.741 60.6511 98.6789 60.6511C97.3667 62.4344 96.0544 64.4159 94.1797 65.4066C94.1797 63.8215 94.5546 62.0381 95.3045 60.6511C93.8048 60.6511 93.6173 60.6511 92.1175 60.6511C91.5551 62.6326 90.9927 64.8122 90.2428 66.7937C89.8679 67.5863 88.9306 67.7844 88.3682 67.9826C86.6809 68.3789 84.8063 69.1715 83.119 68.3789C80.8694 67.3881 78.4323 66.3974 76.5576 64.8122C74.8704 63.4252 72.9957 62.0381 71.3085 60.6511H65.4969C66.0594 62.6326 68.1215 63.4252 69.4338 64.4159C71.121 65.8029 72.6208 67.3881 73.3706 69.5677C74.1205 71.3511 73.7456 73.3326 73.7456 75.314C73.7456 77.0974 74.4955 78.6825 74.4955 80.4659C74.4955 81.8529 74.1205 82.8437 73.3706 84.2307C74.1205 84.2307 80.307 84.4288 82.7441 84.4288C83.8689 84.4288 85.5561 84.2307 86.4935 83.4381C88.3682 81.6548 90.0554 79.4751 92.305 77.89C94.1797 76.5029 96.4293 75.5122 98.304 74.1251C99.6163 73.1344 100.929 72.3418 102.241 71.7474C106.365 69.5677 109.74 66.5955 113.302 63.6233C114.239 62.8307 115.176 61.6418 116.114 60.4529C114.614 60.6511 111.989 60.6511 111.989 60.6511Z" fill="#38195C"/>
</svg>
